  0
SECTION
  2
HEADER
  9
$ACADVER
  1
AC1024
  9
$ACADMAINTVER
 70
6
  9
$DWGCODEPAGE
  3
ANSI_1252
  9
$LASTSAVEDBY
  1
ezdxf
  9
$INSBASE
 10
0.0
 20
0.0
 30
0.0
  9
$EXTMIN
 10
1e+20
 20
1e+20
 30
1e+20
  9
$EXTMAX
 10
-1e+20
 20
-1e+20
 30
-1e+20
  9
$LIMMIN
 10
0.0
 20
0.0
  9
$LIMMAX
 10
420.0
 20
297.0
  9
$ORTHOMODE
 70
0
  9
$REGENMODE
 70
1
  9
$FILLMODE
 70
1
  9
$QTEXTMODE
 70
0
  9
$MIRRTEXT
 70
1
  9
$LTSCALE
 40
1.0
  9
$ATTMODE
 70
1
  9
$TEXTSIZE
 40
2.5
  9
$TRACEWID
 40
1.0
  9
$TEXTSTYLE
  7
Standard
  9
$CLAYER
  8
0
  9
$CELTYPE
  6
ByLayer
  9
$CECOLOR
 62
256
  9
$CELTSCALE
 40
1.0
  9
$DISPSILH
 70
0
  9
$DIMSCALE
 40
1.0
  9
$DIMASZ
 40
2.5
  9
$DIMEXO
 40
0.625
  9
$DIMDLI
 40
3.75
  9
$DIMRND
 40
0.0
  9
$DIMDLE
 40
0.0
  9
$DIMEXE
 40
1.25
  9
$DIMTP
 40
0.0
  9
$DIMTM
 40
0.0
  9
$DIMTXT
 40
2.5
  9
$DIMCEN
 40
2.5
  9
$DIMTSZ
 40
0.0
  9
$DIMTOL
 70
0
  9
$DIMLIM
 70
0
  9
$DIMTIH
 70
0
  9
$DIMTOH
 70
0
  9
$DIMSE1
 70
0
  9
$DIMSE2
 70
0
  9
$DIMTAD
 70
1
  9
$DIMZIN
 70
8
  9
$DIMBLK
  1

  9
$DIMASO
 70
1
  9
$DIMSHO
 70
1
  9
$DIMPOST
  1

  9
$DIMAPOST
  1

  9
$DIMALT
 70
0
  9
$DIMALTD
 70
3
  9
$DIMALTF
 40
0.03937007874
  9
$DIMLFAC
 40
1.0
  9
$DIMTOFL
 70
1
  9
$DIMTVP
 40
0.0
  9
$DIMTIX
 70
0
  9
$DIMSOXD
 70
0
  9
$DIMSAH
 70
0
  9
$DIMBLK1
  1

  9
$DIMBLK2
  1

  9
$DIMSTYLE
  2
ISO-25
  9
$DIMCLRD
 70
0
  9
$DIMCLRE
 70
0
  9
$DIMCLRT
 70
0
  9
$DIMTFAC
 40
1.0
  9
$DIMGAP
 40
0.625
  9
$DIMJUST
 70
0
  9
$DIMSD1
 70
0
  9
$DIMSD2
 70
0
  9
$DIMTOLJ
 70
0
  9
$DIMTZIN
 70
8
  9
$DIMALTZ
 70
0
  9
$DIMALTTZ
 70
0
  9
$DIMUPT
 70
0
  9
$DIMDEC
 70
2
  9
$DIMTDEC
 70
2
  9
$DIMALTU
 70
2
  9
$DIMALTTD
 70
3
  9
$DIMTXSTY
  7
Standard
  9
$DIMAUNIT
 70
0
  9
$DIMADEC
 70
0
  9
$DIMALTRND
 40
0.0
  9
$DIMAZIN
 70
0
  9
$DIMDSEP
 70
44
  9
$DIMATFIT
 70
3
  9
$DIMFRAC
 70
0
  9
$DIMLDRBLK
  1

  9
$DIMLUNIT
 70
2
  9
$DIMLWD
 70
-2
  9
$DIMLWE
 70
-2
  9
$DIMTMOVE
 70
0
  9
$DIMFXL
 40
1.0
  9
$DIMFXLON
 70
0
  9
$DIMJOGANG
 40
0.785398163397
  9
$DIMTFILL
 70
0
  9
$DIMTFILLCLR
 70
0
  9
$DIMARCSYM
 70
0
  9
$DIMLTYPE
  6

  9
$DIMLTEX1
  6

  9
$DIMLTEX2
  6

  9
$DIMTXTDIRECTION
 70
0
  9
$LUNITS
 70
2
  9
$LUPREC
 70
4
  9
$SKETCHINC
 40
1.0
  9
$FILLETRAD
 40
10.0
  9
$AUNITS
 70
0
  9
$AUPREC
 70
2
  9
$MENU
  1
.
  9
$ELEVATION
 40
0.0
  9
$PELEVATION
 40
0.0
  9
$THICKNESS
 40
0.0
  9
$LIMCHECK
 70
0
  9
$CHAMFERA
 40
0.0
  9
$CHAMFERB
 40
0.0
  9
$CHAMFERC
 40
0.0
  9
$CHAMFERD
 40
0.0
  9
$SKPOLY
 70
0
  9
$TDCREATE
 40
2461246.4584375
  9
$TDUCREATE
 40
2458532.153996898
  9
$TDUPDATE
 40
2461246.4584375
  9
$TDUUPDATE
 40
2458532.1544311
  9
$TDINDWG
 40
0.0
  9
$TDUSRTIMER
 40
0.0
  9
$USRTIMER
 70
1
  9
$ANGBASE
 50
0.0
  9
$ANGDIR
 70
0
  9
$PDMODE
 70
0
  9
$PDSIZE
 40
0.0
  9
$PLINEWID
 40
0.0
  9
$SPLFRAME
 70
0
  9
$SPLINETYPE
 70
6
  9
$SPLINESEGS
 70
8
  9
$HANDSEED
  5
BB
  9
$SURFTAB1
 70
6
  9
$SURFTAB2
 70
6
  9
$SURFTYPE
 70
6
  9
$SURFU
 70
6
  9
$SURFV
 70
6
  9
$UCSBASE
  2

  9
$UCSNAME
  2

  9
$UCSORG
 10
0.0
 20
0.0
 30
0.0
  9
$UCSXDIR
 10
1.0
 20
0.0
 30
0.0
  9
$UCSYDIR
 10
0.0
 20
1.0
 30
0.0
  9
$UCSORTHOREF
  2

  9
$UCSORTHOVIEW
 70
0
  9
$UCSORGTOP
 10
0.0
 20
0.0
 30
0.0
  9
$UCSORGBOTTOM
 10
0.0
 20
0.0
 30
0.0
  9
$UCSORGLEFT
 10
0.0
 20
0.0
 30
0.0
  9
$UCSORGRIGHT
 10
0.0
 20
0.0
 30
0.0
  9
$UCSORGFRONT
 10
0.0
 20
0.0
 30
0.0
  9
$UCSORGBACK
 10
0.0
 20
0.0
 30
0.0
  9
$PUCSBASE
  2

  9
$PUCSNAME
  2

  9
$PUCSORG
 10
0.0
 20
0.0
 30
0.0
  9
$PUCSXDIR
 10
1.0
 20
0.0
 30
0.0
  9
$PUCSYDIR
 10
0.0
 20
1.0
 30
0.0
  9
$PUCSORTHOREF
  2

  9
$PUCSORTHOVIEW
 70
0
  9
$PUCSORGTOP
 10
0.0
 20
0.0
 30
0.0
  9
$PUCSORGBOTTOM
 10
0.0
 20
0.0
 30
0.0
  9
$PUCSORGLEFT
 10
0.0
 20
0.0
 30
0.0
  9
$PUCSORGRIGHT
 10
0.0
 20
0.0
 30
0.0
  9
$PUCSORGFRONT
 10
0.0
 20
0.0
 30
0.0
  9
$PUCSORGBACK
 10
0.0
 20
0.0
 30
0.0
  9
$USERI1
 70
0
  9
$USERI2
 70
0
  9
$USERI3
 70
0
  9
$USERI4
 70
0
  9
$USERI5
 70
0
  9
$USERR1
 40
0.0
  9
$USERR2
 40
0.0
  9
$USERR3
 40
0.0
  9
$USERR4
 40
0.0
  9
$USERR5
 40
0.0
  9
$WORLDVIEW
 70
1
  9
$SHADEDGE
 70
3
  9
$SHADEDIF
 70
70
  9
$TILEMODE
 70
1
  9
$MAXACTVP
 70
64
  9
$PINSBASE
 10
0.0
 20
0.0
 30
0.0
  9
$PLIMCHECK
 70
0
  9
$PEXTMIN
 10
1e+20
 20
1e+20
 30
1e+20
  9
$PEXTMAX
 10
-1e+20
 20
-1e+20
 30
-1e+20
  9
$PLIMMIN
 10
0.0
 20
0.0
  9
$PLIMMAX
 10
420.0
 20
297.0
  9
$UNITMODE
 70
0
  9
$VISRETAIN
 70
1
  9
$PLINEGEN
 70
0
  9
$PSLTSCALE
 70
1
  9
$TREEDEPTH
 70
3020
  9
$CMLSTYLE
  2
Standard
  9
$CMLJUST
 70
0
  9
$CMLSCALE
 40
20.0
  9
$PROXYGRAPHICS
 70
1
  9
$MEASUREMENT
 70
1
  9
$CELWEIGHT
370
-1
  9
$ENDCAPS
280
0
  9
$JOINSTYLE
280
0
  9
$LWDISPLAY
290
0
  9
$INSUNITS
 70
6
  9
$HYPERLINKBASE
  1

  9
$STYLESHEET
  1

  9
$XEDIT
290
1
  9
$CEPSNTYPE
380
0
  9
$PSTYLEMODE
290
1
  9
$FINGERPRINTGUID
  2
{90544011-A3AD-4821-B5C8-96091F02899A}
  9
$VERSIONGUID
  2
{EA44FBEE-1913-48C4-96F1-9BCA9E953298}
  9
$EXTNAMES
290
1
  9
$PSVPSCALE
 40
0.0
  9
$OLESTARTUP
290
0
  9
$SORTENTS
280
127
  9
$INDEXCTL
280
0
  9
$HIDETEXT
280
1
  9
$XCLIPFRAME
280
1
  9
$HALOGAP
280
0
  9
$OBSCOLOR
 70
257
  9
$OBSLTYPE
280
0
  9
$INTERSECTIONDISPLAY
280
0
  9
$INTERSECTIONCOLOR
 70
257
  9
$DIMASSOC
280
2
  9
$PROJECTNAME
  1

  9
$CAMERADISPLAY
290
0
  9
$LENSLENGTH
 40
50.0
  9
$CAMERAHEIGHT
 40
0.0
  9
$STEPSPERSEC
 40
24.0
  9
$STEPSIZE
 40
100.0
  9
$3DDWFPREC
 40
2.0
  9
$PSOLWIDTH
 40
0.005
  9
$PSOLHEIGHT
 40
0.08
  9
$LOFTANG1
 40
1.570796326795
  9
$LOFTANG2
 40
1.570796326795
  9
$LOFTMAG1
 40
0.0
  9
$LOFTMAG2
 40
0.0
  9
$LOFTPARAM
 70
7
  9
$LOFTNORMALS
280
1
  9
$LATITUDE
 40
37.795
  9
$LONGITUDE
 40
-122.394
  9
$NORTHDIRECTION
 40
0.0
  9
$TIMEZONE
 70
-8000
  9
$LIGHTGLYPHDISPLAY
280
1
  9
$TILEMODELIGHTSYNCH
280
1
  9
$CMATERIAL
347
20
  9
$SOLIDHIST
280
0
  9
$SHOWHIST
280
1
  9
$DWFFRAME
280
2
  9
$DGNFRAME
280
2
  9
$REALWORLDSCALE
290
1
  9
$INTERFERECOLOR
 62
256
  9
$CSHADOW
280
0
  9
$SHADOWPLANELOCATION
 40
0.0
  0
ENDSEC
  0
SECTION
  2
CLASSES
  0
CLASS
  1
ACDBDICTIONARYWDFLT
  2
AcDbDictionaryWithDefault
  3
ObjectDBX Classes
 90
0
 91
0
280
0
281
0
  0
CLASS
  1
SUN
  2
AcDbSun
  3
SCENEOE
 90
1153
 91
0
280
0
281
0
  0
CLASS
  1
VISUALSTYLE
  2
AcDbVisualStyle
  3
ObjectDBX Classes
 90
4095
 91
0
280
0
281
0
  0
CLASS
  1
MATERIAL
  2
AcDbMaterial
  3
ObjectDBX Classes
 90
1153
 91
0
280
0
281
0
  0
CLASS
  1
SCALE
  2
AcDbScale
  3
ObjectDBX Classes
 90
1153
 91
0
280
0
281
0
  0
CLASS
  1
TABLESTYLE
  2
AcDbTableStyle
  3
ObjectDBX Classes
 90
4095
 91
0
280
0
281
0
  0
CLASS
  1
MLEADERSTYLE
  2
AcDbMLeaderStyle
  3
ACDB_MLEADERSTYLE_CLASS
 90
4095
 91
0
280
0
281
0
  0
CLASS
  1
DICTIONARYVAR
  2
AcDbDictionaryVar
  3
ObjectDBX Classes
 90
0
 91
0
280
0
281
0
  0
CLASS
  1
CELLSTYLEMAP
  2
AcDbCellStyleMap
  3
ObjectDBX Classes
 90
1152
 91
0
280
0
281
0
  0
CLASS
  1
MENTALRAYRENDERSETTINGS
  2
AcDbMentalRayRenderSettings
  3
SCENEOE
 90
1024
 91
0
280
0
281
0
  0
CLASS
  1
ACDBDETAILVIEWSTYLE
  2
AcDbDetailViewStyle
  3
ObjectDBX Classes
 90
1025
 91
0
280
0
281
0
  0
CLASS
  1
ACDBSECTIONVIEWSTYLE
  2
AcDbSectionViewStyle
  3
ObjectDBX Classes
 90
1025
 91
0
280
0
281
0
  0
CLASS
  1
RASTERVARIABLES
  2
AcDbRasterVariables
  3
ISM
 90
0
 91
0
280
0
281
0
  0
CLASS
  1
ACDBPLACEHOLDER
  2
AcDbPlaceHolder
  3
ObjectDBX Classes
 90
0
 91
0
280
0
281
0
  0
CLASS
  1
LAYOUT
  2
AcDbLayout
  3
ObjectDBX Classes
 90
0
 91
0
280
0
281
0
  0
ENDSEC
  0
SECTION
  2
TABLES
  0
TABLE
  2
VPORT
  5
8
330
0
100
AcDbSymbolTable
 70
1
  0
VPORT
  5
23
330
8
100
AcDbSymbolTableRecord
100
AcDbViewportTableRecord
  2
*Active
 70
0
 10
0.0
 20
0.0
 11
1.0
 21
1.0
 12
0.0
 22
0.0
 13
0.0
 23
0.0
 14
0.5
 24
0.5
 15
0.5
 25
0.5
 16
0.0
 26
0.0
 36
1.0
 17
0.0
 27
0.0
 37
0.0
 40
1000.0
 41
1.34
 42
50.0
 43
0.0
 44
0.0
 50
0.0
 51
0.0
 71
0
 72
1000
 73
1
 74
3
 75
0
 76
0
 77
0
 78
0
281
0
 65
0
146
0.0
  0
ENDTAB
  0
TABLE
  2
LTYPE
  5
2
330
0
100
AcDbSymbolTable
 70
3
  0
LTYPE
  5
24
330
2
100
AcDbSymbolTableRecord
100
AcDbLinetypeTableRecord
  2
ByBlock
 70
0
  3

 72
65
 73
0
 40
0.0
  0
LTYPE
  5
25
330
2
100
AcDbSymbolTableRecord
100
AcDbLinetypeTableRecord
  2
ByLayer
 70
0
  3

 72
65
 73
0
 40
0.0
  0
LTYPE
  5
26
330
2
100
AcDbSymbolTableRecord
100
AcDbLinetypeTableRecord
  2
Continuous
 70
0
  3

 72
65
 73
0
 40
0.0
  0
ENDTAB
  0
TABLE
  2
LAYER
  5
1
330
0
100
AcDbSymbolTable
 70
8
  0
LAYER
  5
27
330
1
100
AcDbSymbolTableRecord
100
AcDbLayerTableRecord
  2
0
 70
0
 62
7
  6
Continuous
370
-3
390
13
347
21
  0
LAYER
  5
28
330
1
100
AcDbSymbolTableRecord
100
AcDbLayerTableRecord
  2
Defpoints
 70
0
 62
7
  6
Continuous
290
0
370
-3
390
13
347
21
  0
LAYER
  5
2F
330
1
100
AcDbSymbolTableRecord
100
AcDbLayerTableRecord
  2
INSTR
 70
0
 62
7
  6
Continuous
370
-3
390
13
347
21
  0
LAYER
  5
30
330
1
100
AcDbSymbolTableRecord
100
AcDbLayerTableRecord
  2
NOTES
 70
0
 62
7
  6
Continuous
370
-3
390
13
347
21
  0
LAYER
  5
31
330
1
100
AcDbSymbolTableRecord
100
AcDbLayerTableRecord
  2
BORDER
 70
0
 62
7
  6
Continuous
370
-3
390
13
347
21
  0
LAYER
  5
32
330
1
100
AcDbSymbolTableRecord
100
AcDbLayerTableRecord
  2
TEXT
 70
0
 62
7
  6
Continuous
370
-3
390
13
347
21
  0
LAYER
  5
33
330
1
100
AcDbSymbolTableRecord
100
AcDbLayerTableRecord
  2
TITLE
 70
0
 62
7
  6
Continuous
370
-3
390
13
347
21
  0
LAYER
  5
34
330
1
100
AcDbSymbolTableRecord
100
AcDbLayerTableRecord
  2
GEOM
 70
0
 62
7
  6
Continuous
370
-3
390
13
347
21
  0
ENDTAB
  0
TABLE
  2
STYLE
  5
5
330
0
100
AcDbSymbolTable
 70
1
  0
STYLE
  5
29
330
5
100
AcDbSymbolTableRecord
100
AcDbTextStyleTableRecord
  2
Standard
 70
0
 40
0.0
 41
1.0
 50
0.0
 71
0
 42
2.5
  3
txt
  4

  0
ENDTAB
  0
TABLE
  2
VIEW
  5
7
330
0
100
AcDbSymbolTable
 70
0
  0
ENDTAB
  0
TABLE
  2
UCS
  5
6
330
0
100
AcDbSymbolTable
 70
0
  0
ENDTAB
  0
TABLE
  2
APPID
  5
3
330
0
100
AcDbSymbolTable
 70
3
  0
APPID
  5
2A
330
3
100
AcDbSymbolTableRecord
100
AcDbRegAppTableRecord
  2
ACAD
 70
0
  0
APPID
  5
B8
330
3
100
AcDbSymbolTableRecord
100
AcDbRegAppTableRecord
  2
HATCHBACKGROUNDCOLOR
 70
0
  0
APPID
  5
B9
330
3
100
AcDbSymbolTableRecord
100
AcDbRegAppTableRecord
  2
EZDXF
 70
0
  0
ENDTAB
  0
TABLE
  2
DIMSTYLE
  5
4
330
0
100
AcDbSymbolTable
 70
1
100
AcDbDimStyleTable
  0
DIMSTYLE
105
2B
330
4
100
AcDbSymbolTableRecord
100
AcDbDimStyleTableRecord
  2
Standard
 70
0
 40
1.0
 41
2.5
 42
0.625
 43
3.75
 44
1.25
 45
0.0
 46
0.0
 47
0.0
 48
0.0
 49
2.5
140
2.5
141
2.5
142
0.0
143
0.03937007874
144
1.0
145
0.0
146
1.0
147
0.625
148
0.0
 69
0
 70
0
 71
0
 72
0
 73
0
 74
0
 75
0
 76
0
 77
1
 78
8
 79
3
170
0
171
3
172
1
173
0
174
0
175
0
176
0
177
0
178
0
179
2
271
2
272
2
273
2
274
3
275
0
276
0
277
2
278
44
279
0
280
0
281
0
282
0
283
0
284
8
285
0
286
0
288
0
289
3
290
0
371
-2
372
-2
  0
ENDTAB
  0
TABLE
  2
BLOCK_RECORD
  5
9
330
0
100
AcDbSymbolTable
 70
2
  0
BLOCK_RECORD
  5
17
330
9
100
AcDbSymbolTableRecord
100
AcDbBlockTableRecord
  2
*Model_Space
340
1A
 70
0
280
1
281
0
  0
BLOCK_RECORD
  5
1B
330
9
100
AcDbSymbolTableRecord
100
AcDbBlockTableRecord
  2
*Paper_Space
340
1E
 70
0
280
1
281
0
  0
ENDTAB
  0
ENDSEC
  0
SECTION
  2
BLOCKS
  0
BLOCK
  5
18
330
17
100
AcDbEntity
  8
0
100
AcDbBlockBegin
  2
*Model_Space
 70
0
 10
0.0
 20
0.0
 30
0.0
  3
*Model_Space
  1

  0
ENDBLK
  5
19
330
17
100
AcDbEntity
  8
0
100
AcDbBlockEnd
  0
BLOCK
  5
1C
330
1B
100
AcDbEntity
  8
0
100
AcDbBlockBegin
  2
*Paper_Space
 70
0
 10
0.0
 20
0.0
 30
0.0
  3
*Paper_Space
  1

  0
ENDBLK
  5
1D
330
1B
100
AcDbEntity
  8
0
100
AcDbBlockEnd
  0
ENDSEC
  0
SECTION
  2
ENTITIES
  0
TEXT
  5
35
330
17
100
AcDbEntity
  8
TEXT
100
AcDbText
 10
581.0
 20
182.0
 30
0.0
 40
2.5
  1
DISCHARGE / SUCTION DESIGN PRESS. (MAX) Barg FV / 286 / FV / 286
100
AcDbText
  0
TEXT
  5
36
330
17
100
AcDbEntity
  8
TEXT
100
AcDbText
 10
581.0
 20
194.0
 30
0.0
 40
2.5
  1
DUTY kW 1835
100
AcDbText
  0
TEXT
  5
37
330
17
100
AcDbEntity
  8
TEXT
100
AcDbText
 10
581.0
 20
188.0
 30
0.0
 40
2.5
  1
FLOW RATE kg/h 62809
100
AcDbText
  0
TEXT
  5
38
330
17
100
AcDbEntity
  8
TEXT
100
AcDbText
 10
581.0
 20
200.0
 30
0.0
 40
2.5
  1
TAG NUMBER 26-KA-907
100
AcDbText
  0
TEXT
  5
39
330
17
100
AcDbEntity
  8
TEXT
100
AcDbText
 10
581.0
 20
176.0
 30
0.0
 40
2.5
  1
VENDOR MAN ENERGY SOLUTIONS
100
AcDbText
  0
TEXT
  5
3A
330
17
100
AcDbEntity
  8
TEXT
100
AcDbText
 10
378.45
 20
333.0
 30
0.0
 40
3.5
  1
26-KA-907
100
AcDbText
  0
CIRCLE
  5
3B
330
17
100
AcDbEntity
  8
GEOM
100
AcDbCircle
 10
378.45
 20
297.0
 30
0.0
 40
30.0
  0
LINE
  5
3C
330
17
100
AcDbEntity
  8
GEOM
100
AcDbLine
 10
233.46684734233165
 20
420.7353259156332
 30
0.0
 11
422.03752205021243
 21
420.7353259156332
 31
0.0
  0
LINE
  5
3D
330
17
100
AcDbEntity
  8
GEOM
100
AcDbLine
 10
350.0184356450762
 20
420.86664319294306
 30
0.0
 11
550.5377367524444
 21
420.86664319294306
 31
0.0
  0
LINE
  5
3E
330
17
100
AcDbEntity
  8
GEOM
100
AcDbLine
 10
457.4362932243485
 20
322.106436193686
 30
0.0
 11
604.669888028294
 21
322.106436193686
 31
0.0
  0
LINE
  5
3F
330
17
100
AcDbEntity
  8
GEOM
100
AcDbLine
 10
315.50532680352853
 20
353.35135751400657
 30
0.0
 11
394.8825385907719
 21
353.35135751400657
 31
0.0
  0
LINE
  5
40
330
17
100
AcDbEntity
  8
GEOM
100
AcDbLine
 10
85.63001856361812
 20
264.2327386261654
 30
0.0
 11
283.0153437872714
 21
264.2327386261654
 31
0.0
  0
LINE
  5
41
330
17
100
AcDbEntity
  8
GEOM
100
AcDbLine
 10
165.52966596405048
 20
385.87364798259273
 30
0.0
 11
354.2848359367038
 21
385.87364798259273
 31
0.0
  0
TEXT
  5
42
330
17
100
AcDbEntity
  8
INSTR
100
AcDbText
 10
239.8914470251023
 20
403.0068138110738
 30
0.0
 40
2.5
  1
LIT 9010 26 SD HH:214 LL:75
100
AcDbText
  0
TEXT
  5
43
330
17
100
AcDbEntity
  8
INSTR
100
AcDbText
 10
488.54538453209676
 20
291.9320419505725
 30
0.0
 40
2.5
  1
TIT 9011 26 SD HH:150 LL:110
100
AcDbText
  0
TEXT
  5
44
330
17
100
AcDbEntity
  8
INSTR
100
AcDbText
 10
128.27528671166056
 20
261.5345163567945
 30
0.0
 40
2.5
  1
PDIT 9012 26
100
AcDbText
  0
TEXT
  5
45
330
17
100
AcDbEntity
  8
INSTR
100
AcDbText
 10
465.27569079656024
 20
208.8727178389404
 30
0.0
 40
2.5
  1
TIT 9013 26
100
AcDbText
  0
TEXT
  5
46
330
17
100
AcDbEntity
  8
INSTR
100
AcDbText
 10
287.36977454511236
 20
486.779163965971
 30
0.0
 40
2.5
  1
LIT 9014 26 SD HH:209 LL:50
100
AcDbText
  0
TEXT
  5
47
330
17
100
AcDbEntity
  8
INSTR
100
AcDbText
 10
504.05185404676524
 20
238.67032517773794
 30
0.0
 40
2.5
  1
TIT 9015 26
100
AcDbText
  0
TEXT
  5
48
330
17
100
AcDbEntity
  8
INSTR
100
AcDbText
 10
326.9077664878625
 20
488.50586537365007
 30
0.0
 40
2.5
  1
PSE 9016 26 SD HH:150 LL:75
100
AcDbText
  0
TEXT
  5
49
330
17
100
AcDbEntity
  8
INSTR
100
AcDbText
 10
402.561493324673
 20
219.8716626731167
 30
0.0
 40
2.5
  1
PSE 9017 26 SD HH:135 LL:125
100
AcDbText
  0
TEXT
  5
4A
330
17
100
AcDbEntity
  8
INSTR
100
AcDbText
 10
261.8957728987277
 20
392.75409314563103
 30
0.0
 40
2.5
  1
TIT 9018 26
100
AcDbText
  0
TEXT
  5
4B
330
17
100
AcDbEntity
  8
INSTR
100
AcDbText
 10
370.58004719331666
 20
161.07199837207
 30
0.0
 40
2.5
  1
PDIT 9019 26
100
AcDbText
  0
TEXT
  5
4C
330
17
100
AcDbEntity
  8
INSTR
100
AcDbText
 10
121.93437342243462
 20
424.85052981165126
 30
0.0
 40
2.5
  1
FIT 9020 26
100
AcDbText
  0
TEXT
  5
4D
330
17
100
AcDbEntity
  8
INSTR
100
AcDbText
 10
194.89965894266288
 20
484.1548775063285
 30
0.0
 40
2.5
  1
TIT 9021 26 SD HH:235 LL:110
100
AcDbText
  0
TEXT
  5
4E
330
17
100
AcDbEntity
  8
INSTR
100
AcDbText
 10
263.6905192751128
 20
373.28020660892065
 30
0.0
 40
2.5
  1
PIT 9022 26
100
AcDbText
  0
TEXT
  5
4F
330
17
100
AcDbEntity
  8
TEXT
100
AcDbText
 10
520.1708941788105
 20
334.7821539998675
 30
0.0
 40
2.5
  1
3"-GI-63-9030-AS20-38
100
AcDbText
  0
TEXT
  5
50
330
17
100
AcDbEntity
  8
TEXT
100
AcDbText
 10
488.2064877576212
 20
301.63544331800273
 30
0.0
 40
2.5
  1
2"-DO-26-9031-GC11S-38
100
AcDbText
  0
TEXT
  5
51
330
17
100
AcDbEntity
  8
TEXT
100
AcDbText
 10
495.9062117228254
 20
263.6726963365295
 30
0.0
 40
2.5
  1
3"-VF-43-9032-AC21-08
100
AcDbText
  0
TEXT
  5
52
330
17
100
AcDbEntity
  8
TEXT
100
AcDbText
 10
309.33526051568265
 20
181.7777372303577
 30
0.0
 40
2.5
  1
2"-AI-40-9033-AC21S-03
100
AcDbText
  0
TEXT
  5
53
330
17
100
AcDbEntity
  8
TEXT
100
AcDbText
 10
268.77513594052914
 20
490.077224973237
 30
0.0
 40
2.5
  1
4"-WC-40-9034-AS20-08
100
AcDbText
  0
TEXT
  5
54
330
17
100
AcDbEntity
  8
TEXT
100
AcDbText
 10
400.0994194457203
 20
102.12325173904006
 30
0.0
 40
2.5
  1
8"-DC-43-9035-AC21S-03
100
AcDbText
  0
TEXT
  5
55
330
17
100
AcDbEntity
  8
TEXT
100
AcDbText
 10
226.77299951898434
 20
406.4415488968957
 30
0.0
 40
2.5
  1
3"-PV-63-9036-GS20S-00
100
AcDbText
  0
TEXT
  5
56
330
17
100
AcDbEntity
  8
TEXT
100
AcDbText
 10
107.12003881088881
 20
467.28710408317124
 30
0.0
 40
2.5
  1
6"-VA-63-9037-AS20S-00
100
AcDbText
  0
TEXT
  5
57
330
17
100
AcDbEntity
  8
TEXT
100
AcDbText
 10
216.65844412016548
 20
103.53552216760957
 30
0.0
 40
2.5
  1
10"-VA-63-9038-GS20S-38
100
AcDbText
  0
TEXT
  5
58
330
17
100
AcDbEntity
  8
TEXT
100
AcDbText
 10
105.66303799310232
 20
349.23816390299754
 30
0.0
 40
2.5
  1
10"-PL-26-9039-GC11S-03
100
AcDbText
  0
TEXT
  5
59
330
17
100
AcDbEntity
  8
TEXT
100
AcDbText
 10
493.4669935438891
 20
485.63356261083277
 30
0.0
 40
2.5
  1
10"-DO-40-9040-AS20S-00
100
AcDbText
  0
TEXT
  5
5A
330
17
100
AcDbEntity
  8
TEXT
100
AcDbText
 10
536.1508989464089
 20
408.6526226472331
 30
0.0
 40
2.5
  1
8"-VA-43-9041-GC11S-08
100
AcDbText
  0
TEXT
  5
5B
330
17
100
AcDbEntity
  8
TEXT
100
AcDbText
 10
323.7801366827543
 20
346.6205887952568
 30
0.0
 40
2.5
  1
6"-PL-63-9042-GC11S-38
100
AcDbText
  0
TEXT
  5
5C
330
17
100
AcDbEntity
  8
TEXT
100
AcDbText
 10
550.773478281167
 20
503.47554611081216
 30
0.0
 40
2.5
  1
8"-GI-63-9043-FC11S-08
100
AcDbText
  0
TEXT
  5
5D
330
17
100
AcDbEntity
  8
NOTES
100
AcDbText
 10
12.0
 20
560.0
 30
0.0
 40
2.5
  1
1. VENT ROUTED TO SAFE LOCATION.
100
AcDbText
  0
TEXT
  5
5E
330
17
100
AcDbEntity
  8
NOTES
100
AcDbText
 10
12.0
 20
553.0
 30
0.0
 40
2.5
  1
2. UPSTREAM STRAIGHT RUN MIN. 10xD. DOWNSTREAM STRAIGHT RUN MIN. 5xD.
100
AcDbText
  0
TEXT
  5
5F
330
17
100
AcDbEntity
  8
NOTES
100
AcDbText
 10
12.0
 20
546.0
 30
0.0
 40
2.5
  1
3. CHEMICAL CLEANING (CIP); BLEED/DRAIN CONNECTION.
100
AcDbText
  0
TEXT
  5
60
330
17
100
AcDbEntity
  8
NOTES
100
AcDbText
 10
12.0
 20
539.0
 30
0.0
 40
2.5
  1
4. PRIMARY SEAL GAS IS TAKEN DOWNSTREAM LAST COMPRESSING STAGE. SKID INTERNAL DESIGN.
100
AcDbText
  0
TEXT
  5
61
330
17
100
AcDbEntity
  8
NOTES
100
AcDbText
 10
12.0
 20
532.0
 30
0.0
 40
2.5
  1
5. MAX BACK-PRESSURE 0.005 BARG.
100
AcDbText
  0
TEXT
  5
62
330
17
100
AcDbEntity
  8
NOTES
100
AcDbText
 10
12.0
 20
525.0
 30
0.0
 40
2.5
  1
6. OIL CHANGE BY USING TEMPORARY ARRANGEMENT WITH HOSES.
100
AcDbText
  0
TEXT
  5
63
330
17
100
AcDbEntity
  8
NOTES
100
AcDbText
 10
12.0
 20
518.0
 30
0.0
 40
2.5
  1
7. INSULATION THICKNESS TO BE TAKEN INTO CONSIDERATION ON TW SELECTION.
100
AcDbText
  0
TEXT
  5
64
330
17
100
AcDbEntity
  8
NOTES
100
AcDbText
 10
12.0
 20
511.0
 30
0.0
 40
2.5
  1
8. SAFETY CRITICAL HEAT TRACING - HYDRATE MITIGATION (25 DEGC).
100
AcDbText
  0
TEXT
  5
65
330
17
100
AcDbEntity
  8
NOTES
100
AcDbText
 10
12.0
 20
504.0
 30
0.0
 40
2.5
  1
9. LL SET POINT IS OVERRIDEN AT START-UP.
100
AcDbText
  0
TEXT
  5
66
330
17
100
AcDbEntity
  8
NOTES
100
AcDbText
 10
12.0
 20
497.0
 30
0.0
 40
2.5
  1
10. DELETED.
100
AcDbText
  0
TEXT
  5
67
330
17
100
AcDbEntity
  8
NOTES
100
AcDbText
 10
12.0
 20
490.0
 30
0.0
 40
2.5
  1
11. DELETED.
100
AcDbText
  0
TEXT
  5
68
330
17
100
AcDbEntity
  8
NOTES
100
AcDbText
 10
12.0
 20
483.0
 30
0.0
 40
2.5
  1
12. FROM SEAL GAS SYSTEM RUPTURE DISCS.
100
AcDbText
  0
TEXT
  5
69
330
17
100
AcDbEntity
  8
NOTES
100
AcDbText
 10
12.0
 20
476.0
 30
0.0
 40
2.5
  1
13. DIFFERENTIAL PRESSURE BASED ORIFICE TYPE VOLUME FLOW METER.
100
AcDbText
  0
TEXT
  5
6A
330
17
100
AcDbEntity
  8
NOTES
100
AcDbText
 10
12.0
 20
469.0
 30
0.0
 40
2.5
  1
14. SECONDARY SEAL GAS AND SEPARATION GAS.
100
AcDbText
  0
TEXT
  5
6B
330
17
100
AcDbEntity
  8
NOTES
100
AcDbText
 10
12.0
 20
462.0
 30
0.0
 40
2.5
  1
15. HIGH POINT VENT AND LOW POINT DRAIN TO BE FINALIZED BY PIPING AS PER PIPING LAYOUT.
100
AcDbText
  0
TEXT
  5
6C
330
17
100
AcDbEntity
  8
NOTES
100
AcDbText
 10
12.0
 20
455.0
 30
0.0
 40
2.5
  1
16. MANUAL DRAIN PRIOR TO EACH START-UP. PUSH BUTTON WITH PERMISSIVE FOR START-UP SEQUENCE.
100
AcDbText
  0
TEXT
  5
6D
330
17
100
AcDbEntity
  8
NOTES
100
AcDbText
 10
12.0
 20
448.0
 30
0.0
 40
2.5
  1
17. PROVISION FOR FUTURE HOT GAS BYPASS LINE.
100
AcDbText
  0
TEXT
  5
6E
330
17
100
AcDbEntity
  8
NOTES
100
AcDbText
 10
12.0
 20
441.0
 30
0.0
 40
2.5
  1
18. LUBE OIL RESERVOIR VENT. OIL MIST SEPARATOR INSTALLED OFF-SKID.
100
AcDbText
  0
TEXT
  5
6F
330
17
100
AcDbEntity
  8
NOTES
100
AcDbText
 10
12.0
 20
434.0
 30
0.0
 40
2.5
  1
19. FLAME ARRESTER INCLUDES FLAME FILTER AND LOCATED AT END OF PIPE.
100
AcDbText
  0
TEXT
  5
70
330
17
100
AcDbEntity
  8
NOTES
100
AcDbText
 10
12.0
 20
427.0
 30
0.0
 40
2.5
  1
20. ATMOSPHERIC VENT.
100
AcDbText
  0
TEXT
  5
71
330
17
100
AcDbEntity
  8
NOTES
100
AcDbText
 10
12.0
 20
420.0
 30
0.0
 40
2.5
  1
21. THIS P&ID CONTAINS DCN-KP-0273-1.
100
AcDbText
  0
TEXT
  5
72
330
17
100
AcDbEntity
  8
TEXT
100
AcDbText
 10
247.13373390548347
 20
112.66546609761755
 30
0.0
 40
2.0
  1
N4200
100
AcDbText
  0
TEXT
  5
73
330
17
100
AcDbEntity
  8
TEXT
100
AcDbText
 10
180.02216945677003
 20
358.91169823354534
 30
0.0
 40
2.0
  1
N4201
100
AcDbText
  0
TEXT
  5
74
330
17
100
AcDbEntity
  8
TEXT
100
AcDbText
 10
324.3491958364598
 20
212.79314468893995
 30
0.0
 40
2.0
  1
N4202
100
AcDbText
  0
TEXT
  5
75
330
17
100
AcDbEntity
  8
TEXT
100
AcDbText
 10
195.86318315085325
 20
320.48303774245903
 30
0.0
 40
2.0
  1
N4203
100
AcDbText
  0
TEXT
  5
76
330
17
100
AcDbEntity
  8
TEXT
100
AcDbText
 10
364.55902476985943
 20
125.40281151794812
 30
0.0
 40
2.0
  1
N4204
100
AcDbText
  0
TEXT
  5
77
330
17
100
AcDbEntity
  8
TEXT
100
AcDbText
 10
361.75714753300565
 20
156.6477450375291
 30
0.0
 40
2.0
  1
N4205
100
AcDbText
  0
TEXT
  5
78
330
17
100
AcDbEntity
  8
TEXT
100
AcDbText
 10
414.9578005028965
 20
203.51142273411796
 30
0.0
 40
2.0
  1
N4206
100
AcDbText
  0
TEXT
  5
79
330
17
100
AcDbEntity
  8
TEXT
100
AcDbText
 10
242.9754155779193
 20
216.11164889167628
 30
0.0
 40
2.0
  1
N4207
100
AcDbText
  0
TEXT
  5
7A
330
17
100
AcDbEntity
  8
TEXT
100
AcDbText
 10
391.2884606634255
 20
102.75267043817264
 30
0.0
 40
2.0
  1
N4208
100
AcDbText
  0
TEXT
  5
7B
330
17
100
AcDbEntity
  8
TITLE
100
AcDbText
 10
641.0
 20
48.0
 30
0.0
 40
2.5
  1
A  2026-01-15  ISSUED FOR DESIGN
100
AcDbText
  0
TEXT
  5
7C
330
17
100
AcDbEntity
  8
TITLE
100
AcDbText
 10
641.0
 20
38.0
 30
0.0
 40
2.5
  1
2026-01-15
100
AcDbText
  0
TEXT
  5
7D
330
17
100
AcDbEntity
  8
TITLE
100
AcDbText
 10
641.0
 20
8.0
 30
0.0
 40
2.5
  1
0D204-PID-26-907-001
100
AcDbText
  0
TEXT
  5
7E
330
17
100
AcDbEntity
  8
TITLE
100
AcDbText
 10
641.0
 20
20.0
 30
0.0
 40
2.5
  1
26-KA-907
100
AcDbText
  0
TEXT
  5
7F
330
17
100
AcDbEntity
  8
TITLE
100
AcDbText
 10
641.0
 20
26.0
 30
0.0
 40
2.5
  1
REV A
100
AcDbText
  0
TEXT
  5
80
330
17
100
AcDbEntity
  8
TITLE
100
AcDbText
 10
641.0
 20
32.0
 30
0.0
 40
2.5
  1
SHEET 1 OF 1
100
AcDbText
  0
TEXT
  5
81
330
17
100
AcDbEntity
  8
TITLE
100
AcDbText
 10
641.0
 20
14.0
 30
0.0
 40
2.5
  1
3RD STAGE HP GAS EXPORT COMPRESSOR
100
AcDbText
  0
TEXT
  5
82
330
17
100
AcDbEntity
  8
TEXT
100
AcDbText
 10
456.57343686599023
 20
80.61953170064017
 30
0.0
 40
2.0
  1
26CH9039
100
AcDbText
  0
TEXT
  5
83
330
17
100
AcDbEntity
  8
TEXT
100
AcDbText
 10
137.4612257036231
 20
243.9842327743512
 30
0.0
 40
2.0
  1
26BL9344
100
AcDbText
  0
TEXT
  5
84
330
17
100
AcDbEntity
  8
TEXT
100
AcDbText
 10
462.14518391720907
 20
493.61865442724456
 30
0.0
 40
2.0
  1
40CH9023
100
AcDbText
  0
TEXT
  5
85
330
17
100
AcDbEntity
  8
TEXT
100
AcDbText
 10
102.16171400716135
 20
310.992410723484
 30
0.0
 40
2.0
  1
26CB9155
100
AcDbText
  0
TEXT
  5
86
330
17
100
AcDbEntity
  8
TEXT
100
AcDbText
 10
234.81700080806354
 20
413.28339050488535
 30
0.0
 40
2.0
  1
43BL9397
100
AcDbText
  0
TEXT
  5
87
330
17
100
AcDbEntity
  8
TEXT
100
AcDbText
 10
172.6471412823991
 20
119.42019473604392
 30
0.0
 40
2.0
  1
40CH9319
100
AcDbText
  0
TEXT
  5
88
330
17
100
AcDbEntity
  8
TEXT
100
AcDbText
 10
531.7146448553963
 20
523.0944252549896
 30
0.0
 40
2.0
  1
43BL9176
100
AcDbText
  0
TEXT
  5
89
330
17
100
AcDbEntity
  8
TEXT
100
AcDbText
 10
342.2604926628338
 20
524.8769003560751
 30
0.0
 40
2.0
  1
43BL9169
100
AcDbText
  0
TEXT
  5
8A
330
17
100
AcDbEntity
  8
TEXT
100
AcDbText
 10
289.4109540014222
 20
255.0925329899537
 30
0.0
 40
2.0
  1
43GB9352
100
AcDbText
  0
TEXT
  5
8B
330
17
100
AcDbEntity
  8
TEXT
100
AcDbText
 10
354.38278601596676
 20
390.1182632198957
 30
0.0
 40
2.0
  1
43GT9082
100
AcDbText
  0
TEXT
  5
8C
330
17
100
AcDbEntity
  8
BORDER
100
AcDbText
 10
35.041666666666664
 20
4.0
 30
0.0
 40
3.0
  1
1
100
AcDbText
  0
TEXT
  5
8D
330
17
100
AcDbEntity
  8
BORDER
100
AcDbText
 10
665.7916666666666
 20
4.0
 30
0.0
 40
3.0
  1
10
100
AcDbText
  0
TEXT
  5
8E
330
17
100
AcDbEntity
  8
BORDER
100
AcDbText
 10
735.875
 20
4.0
 30
0.0
 40
3.0
  1
11
100
AcDbText
  0
TEXT
  5
8F
330
17
100
AcDbEntity
  8
BORDER
100
AcDbText
 10
805.9583333333334
 20
4.0
 30
0.0
 40
3.0
  1
12
100
AcDbText
  0
TEXT
  5
90
330
17
100
AcDbEntity
  8
BORDER
100
AcDbText
 10
105.125
 20
4.0
 30
0.0
 40
3.0
  1
2
100
AcDbText
  0
TEXT
  5
91
330
17
100
AcDbEntity
  8
BORDER
100
AcDbText
 10
175.20833333333334
 20
4.0
 30
0.0
 40
3.0
  1
3
100
AcDbText
  0
TEXT
  5
92
330
17
100
AcDbEntity
  8
BORDER
100
AcDbText
 10
245.29166666666669
 20
4.0
 30
0.0
 40
3.0
  1
4
100
AcDbText
  0
TEXT
  5
93
330
17
100
AcDbEntity
  8
BORDER
100
AcDbText
 10
315.375
 20
4.0
 30
0.0
 40
3.0
  1
5
100
AcDbText
  0
TEXT
  5
94
330
17
100
AcDbEntity
  8
BORDER
100
AcDbText
 10
385.4583333333333
 20
4.0
 30
0.0
 40
3.0
  1
6
100
AcDbText
  0
TEXT
  5
95
330
17
100
AcDbEntity
  8
BORDER
100
AcDbText
 10
455.54166666666663
 20
4.0
 30
0.0
 40
3.0
  1
7
100
AcDbText
  0
TEXT
  5
96
330
17
100
AcDbEntity
  8
BORDER
100
AcDbText
 10
525.625
 20
4.0
 30
0.0
 40
3.0
  1
8
100
AcDbText
  0
TEXT
  5
97
330
17
100
AcDbEntity
  8
BORDER
100
AcDbText
 10
595.7083333333334
 20
4.0
 30
0.0
 40
3.0
  1
9
100
AcDbText
  0
TEXT
  5
98
330
17
100
AcDbEntity
  8
BORDER
100
AcDbText
 10
35.041666666666664
 20
590.0
 30
0.0
 40
3.0
  1
1
100
AcDbText
  0
TEXT
  5
99
330
17
100
AcDbEntity
  8
BORDER
100
AcDbText
 10
665.7916666666666
 20
590.0
 30
0.0
 40
3.0
  1
10
100
AcDbText
  0
TEXT
  5
9A
330
17
100
AcDbEntity
  8
BORDER
100
AcDbText
 10
735.875
 20
590.0
 30
0.0
 40
3.0
  1
11
100
AcDbText
  0
TEXT
  5
9B
330
17
100
AcDbEntity
  8
BORDER
100
AcDbText
 10
805.9583333333334
 20
590.0
 30
0.0
 40
3.0
  1
12
100
AcDbText
  0
TEXT
  5
9C
330
17
100
AcDbEntity
  8
BORDER
100
AcDbText
 10
105.125
 20
590.0
 30
0.0
 40
3.0
  1
2
100
AcDbText
  0
TEXT
  5
9D
330
17
100
AcDbEntity
  8
BORDER
100
AcDbText
 10
175.20833333333334
 20
590.0
 30
0.0
 40
3.0
  1
3
100
AcDbText
  0
TEXT
  5
9E
330
17
100
AcDbEntity
  8
BORDER
100
AcDbText
 10
245.29166666666669
 20
590.0
 30
0.0
 40
3.0
  1
4
100
AcDbText
  0
TEXT
  5
9F
330
17
100
AcDbEntity
  8
BORDER
100
AcDbText
 10
315.375
 20
590.0
 30
0.0
 40
3.0
  1
5
100
AcDbText
  0
TEXT
  5
A0
330
17
100
AcDbEntity
  8
BORDER
100
AcDbText
 10
385.4583333333333
 20
590.0
 30
0.0
 40
3.0
  1
6
100
AcDbText
  0
TEXT
  5
A1
330
17
100
AcDbEntity
  8
BORDER
100
AcDbText
 10
455.54166666666663
 20
590.0
 30
0.0
 40
3.0
  1
7
100
AcDbText
  0
TEXT
  5
A2
330
17
100
AcDbEntity
  8
BORDER
100
AcDbText
 10
525.625
 20
590.0
 30
0.0
 40
3.0
  1
8
100
AcDbText
  0
TEXT
  5
A3
330
17
100
AcDbEntity
  8
BORDER
100
AcDbText
 10
595.7083333333334
 20
590.0
 30
0.0
 40
3.0
  1
9
100
AcDbText
  0
TEXT
  5
A4
330
17
100
AcDbEntity
  8
BORDER
100
AcDbText
 10
4.0
 20
564.3
 30
0.0
 40
3.0
  1
A
100
AcDbText
  0
TEXT
  5
A5
330
17
100
AcDbEntity
  8
BORDER
100
AcDbText
 10
4.0
 20
504.9
 30
0.0
 40
3.0
  1
B
100
AcDbText
  0
TEXT
  5
A6
330
17
100
AcDbEntity
  8
BORDER
100
AcDbText
 10
4.0
 20
445.5
 30
0.0
 40
3.0
  1
C
100
AcDbText
  0
TEXT
  5
A7
330
17
100
AcDbEntity
  8
BORDER
100
AcDbText
 10
4.0
 20
386.1
 30
0.0
 40
3.0
  1
D
100
AcDbText
  0
TEXT
  5
A8
330
17
100
AcDbEntity
  8
BORDER
100
AcDbText
 10
4.0
 20
326.7
 30
0.0
 40
3.0
  1
E
100
AcDbText
  0
TEXT
  5
A9
330
17
100
AcDbEntity
  8
BORDER
100
AcDbText
 10
4.0
 20
267.29999999999995
 30
0.0
 40
3.0
  1
F
100
AcDbText
  0
TEXT
  5
AA
330
17
100
AcDbEntity
  8
BORDER
100
AcDbText
 10
4.0
 20
207.89999999999998
 30
0.0
 40
3.0
  1
G
100
AcDbText
  0
TEXT
  5
AB
330
17
100
AcDbEntity
  8
BORDER
100
AcDbText
 10
4.0
 20
148.5
 30
0.0
 40
3.0
  1
H
100
AcDbText
  0
TEXT
  5
AC
330
17
100
AcDbEntity
  8
BORDER
100
AcDbText
 10
4.0
 20
89.10000000000002
 30
0.0
 40
3.0
  1
I
100
AcDbText
  0
TEXT
  5
AD
330
17
100
AcDbEntity
  8
BORDER
100
AcDbText
 10
4.0
 20
29.700000000000045
 30
0.0
 40
3.0
  1
J
100
AcDbText
  0
TEXT
  5
AE
330
17
100
AcDbEntity
  8
BORDER
100
AcDbText
 10
837.0
 20
564.3
 30
0.0
 40
3.0
  1
A
100
AcDbText
  0
TEXT
  5
AF
330
17
100
AcDbEntity
  8
BORDER
100
AcDbText
 10
837.0
 20
504.9
 30
0.0
 40
3.0
  1
B
100
AcDbText
  0
TEXT
  5
B0
330
17
100
AcDbEntity
  8
BORDER
100
AcDbText
 10
837.0
 20
445.5
 30
0.0
 40
3.0
  1
C
100
AcDbText
  0
TEXT
  5
B1
330
17
100
AcDbEntity
  8
BORDER
100
AcDbText
 10
837.0
 20
386.1
 30
0.0
 40
3.0
  1
D
100
AcDbText
  0
TEXT
  5
B2
330
17
100
AcDbEntity
  8
BORDER
100
AcDbText
 10
837.0
 20
326.7
 30
0.0
 40
3.0
  1
E
100
AcDbText
  0
TEXT
  5
B3
330
17
100
AcDbEntity
  8
BORDER
100
AcDbText
 10
837.0
 20
267.29999999999995
 30
0.0
 40
3.0
  1
F
100
AcDbText
  0
TEXT
  5
B4
330
17
100
AcDbEntity
  8
BORDER
100
AcDbText
 10
837.0
 20
207.89999999999998
 30
0.0
 40
3.0
  1
G
100
AcDbText
  0
TEXT
  5
B5
330
17
100
AcDbEntity
  8
BORDER
100
AcDbText
 10
837.0
 20
148.5
 30
0.0
 40
3.0
  1
H
100
AcDbText
  0
TEXT
  5
B6
330
17
100
AcDbEntity
  8
BORDER
100
AcDbText
 10
837.0
 20
89.10000000000002
 30
0.0
 40
3.0
  1
I
100
AcDbText
  0
TEXT
  5
B7
330
17
100
AcDbEntity
  8
BORDER
100
AcDbText
 10
837.0
 20
29.700000000000045
 30
0.0
 40
3.0
  1
J
100
AcDbText
  0
ENDSEC
  0
SECTION
  2
OBJECTS
  0
DICTIONARY
  5
A
330
0
100
AcDbDictionary
281
1
  3
ACAD_COLOR
350
B
  3
ACAD_GROUP
350
C
  3
ACAD_LAYOUT
350
D
  3
ACAD_MATERIAL
350
E
  3
ACAD_MLEADERSTYLE
350
F
  3
ACAD_MLINESTYLE
350
10
  3
ACAD_PLOTSETTINGS
350
11
  3
ACAD_PLOTSTYLENAME
350
12
  3
ACAD_SCALELIST
350
14
  3
ACAD_TABLESTYLE
350
15
  3
ACAD_VISUALSTYLE
350
16
  3
EZDXF_META
350
2D
  0
DICTIONARY
  5
B
330
A
100
AcDbDictionary
281
1
  0
DICTIONARY
  5
C
330
A
100
AcDbDictionary
281
1
  0
DICTIONARY
  5
D
330
A
100
AcDbDictionary
281
1
  3
Model
350
1A
  3
Layout1
350
1E
  0
DICTIONARY
  5
E
330
A
100
AcDbDictionary
281
1
  3
ByBlock
350
1F
  3
ByLayer
350
20
  3
Global
350
21
  0
DICTIONARY
  5
F
330
A
100
AcDbDictionary
281
1
  3
Standard
350
2C
  0
DICTIONARY
  5
10
330
A
100
AcDbDictionary
281
1
  3
Standard
350
22
  0
DICTIONARY
  5
11
330
A
100
AcDbDictionary
281
1
  0
ACDBDICTIONARYWDFLT
  5
12
330
A
100
AcDbDictionary
281
1
  3
Normal
350
13
100
AcDbDictionaryWithDefault
340
13
  0
ACDBPLACEHOLDER
  5
13
330
12
  0
DICTIONARY
  5
14
330
A
100
AcDbDictionary
281
1
  0
DICTIONARY
  5
15
330
A
100
AcDbDictionary
281
1
  0
DICTIONARY
  5
16
330
A
100
AcDbDictionary
281
1
  0
LAYOUT
  5
1A
330
D
100
AcDbPlotSettings
  1

  4
A3
  6

 40
7.5
 41
20.0
 42
7.5
 43
20.0
 44
420.0
 45
297.0
 46
0.0
 47
0.0
 48
0.0
 49
0.0
140
0.0
141
0.0
142
1.0
143
1.0
 70
1024
 72
1
 73
0
 74
5
  7

 75
16
 76
0
 77
2
 78
300
147
1.0
148
0.0
149
0.0
100
AcDbLayout
  1
Model
 70
1
 71
0
 10
0.0
 20
0.0
 11
420.0
 21
297.0
 12
0.0
 22
0.0
 32
0.0
 14
1e+20
 24
1e+20
 34
1e+20
 15
-1e+20
 25
-1e+20
 35
-1e+20
146
0.0
 13
0.0
 23
0.0
 33
0.0
 16
1.0
 26
0.0
 36
0.0
 17
0.0
 27
1.0
 37
0.0
 76
1
330
17
  0
LAYOUT
  5
1E
330
D
100
AcDbPlotSettings
  1

  4
A3
  6

 40
7.5
 41
20.0
 42
7.5
 43
20.0
 44
420.0
 45
297.0
 46
0.0
 47
0.0
 48
0.0
 49
0.0
140
0.0
141
0.0
142
1.0
143
1.0
 70
0
 72
1
 73
0
 74
5
  7

 75
16
 76
0
 77
2
 78
300
147
1.0
148
0.0
149
0.0
100
AcDbLayout
  1
Layout1
 70
1
 71
1
 10
0.0
 20
0.0
 11
420.0
 21
297.0
 12
0.0
 22
0.0
 32
0.0
 14
1e+20
 24
1e+20
 34
1e+20
 15
-1e+20
 25
-1e+20
 35
-1e+20
146
0.0
 13
0.0
 23
0.0
 33
0.0
 16
1.0
 26
0.0
 36
0.0
 17
0.0
 27
1.0
 37
0.0
 76
1
330
1B
  0
MATERIAL
  5
1F
102
{ACAD_REACTORS
330
E
102
}
330
E
100
AcDbMaterial
  1
ByBlock
  2

 70
0
 40
1.0
 71
1
 41
1.0
 91
-1023410177
 42
1.0
 72
1
  3

 73
1
 74
1
 75
1
 44
0.5
 73
0
 45
1.0
 46
1.0
 77
1
  4

 78
1
 79
1
170
1
 48
1.0
171
1
  6

172
1
173
1
174
1
140
1.0
141
1.0
175
1
  7

176
1
177
1
178
1
143
1.0
179
1
  8

270
1
271
1
272
1
145
1.0
146
1.0
273
1
  9

274
1
275
1
276
1
 42
1.0
 72
1
  3

 73
1
 74
1
 75
1
 94
63
  0
MATERIAL
  5
20
102
{ACAD_REACTORS
330
E
102
}
330
E
100
AcDbMaterial
  1
ByLayer
  2

 70
0
 40
1.0
 71
1
 41
1.0
 91
-1023410177
 42
1.0
 72
1
  3

 73
1
 74
1
 75
1
 44
0.5
 73
0
 45
1.0
 46
1.0
 77
1
  4

 78
1
 79
1
170
1
 48
1.0
171
1
  6

172
1
173
1
174
1
140
1.0
141
1.0
175
1
  7

176
1
177
1
178
1
143
1.0
179
1
  8

270
1
271
1
272
1
145
1.0
146
1.0
273
1
  9

274
1
275
1
276
1
 42
1.0
 72
1
  3

 73
1
 74
1
 75
1
 94
63
  0
MATERIAL
  5
21
102
{ACAD_REACTORS
330
E
102
}
330
E
100
AcDbMaterial
  1
Global
  2

 70
0
 40
1.0
 71
1
 41
1.0
 91
-1023410177
 42
1.0
 72
1
  3

 73
1
 74
1
 75
1
 44
0.5
 73
0
 45
1.0
 46
1.0
 77
1
  4

 78
1
 79
1
170
1
 48
1.0
171
1
  6

172
1
173
1
174
1
140
1.0
141
1.0
175
1
  7

176
1
177
1
178
1
143
1.0
179
1
  8

270
1
271
1
272
1
145
1.0
146
1.0
273
1
  9

274
1
275
1
276
1
 42
1.0
 72
1
  3

 73
1
 74
1
 75
1
 94
63
  0
MLINESTYLE
  5
22
102
{ACAD_REACTORS
330
10
102
}
330
10
100
AcDbMlineStyle
  2
Standard
 70
0
  3

 62
256
 51
90.0
 52
90.0
 71
2
 49
0.5
 62
256
  6
BYLAYER
 49
-0.5
 62
256
  6
BYLAYER
  0
MLEADERSTYLE
  5
2C
102
{ACAD_REACTORS
330
F
102
}
330
F
100
AcDbMLeaderStyle
179
2
170
2
171
1
172
0
 90
2
 40
0.0
 41
0.0
173
1
 91
-1056964608
 92
-2
290
1
 42
2.0
291
1
 43
8.0
  3
Standard
 44
4.0
300

342
29
174
1
175
1
176
0
178
1
 93
-1056964608
 45
4.0
292
0
297
0
 46
4.0
 94
-1056964608
 47
1.0
 49
1.0
140
1.0
294
1
141
0.0
177
0
142
1.0
295
0
296
0
143
3.75
271
0
272
9
273
9
  0
DICTIONARY
  5
2D
330
A
100
AcDbDictionary
280
1
281
1
  3
CREATED_BY_EZDXF
350
2E
  3
WRITTEN_BY_EZDXF
350
BA
  0
DICTIONARYVAR
  5
2E
330
2D
100
DictionaryVariables
280
0
  1
1.4.4 @ 2026-07-24T11:00:09.651383+00:00
  0
DICTIONARYVAR
  5
BA
330
2D
100
DictionaryVariables
280
0
  1
1.4.4 @ 2026-07-24T11:00:09.654827+00:00
  0
ENDSEC
  0
EOF
