  0
SECTION
  2
HEADER
  9
$ACADVER
  1
AC1024
  9
$ACADMAINTVER
 70
6
  9
$DWGCODEPAGE
  3
ANSI_1252
  9
$LASTSAVEDBY
  1
ezdxf
  9
$INSBASE
 10
0.0
 20
0.0
 30
0.0
  9
$EXTMIN
 10
1e+20
 20
1e+20
 30
1e+20
  9
$EXTMAX
 10
-1e+20
 20
-1e+20
 30
-1e+20
  9
$LIMMIN
 10
0.0
 20
0.0
  9
$LIMMAX
 10
420.0
 20
297.0
  9
$ORTHOMODE
 70
0
  9
$REGENMODE
 70
1
  9
$FILLMODE
 70
1
  9
$QTEXTMODE
 70
0
  9
$MIRRTEXT
 70
1
  9
$LTSCALE
 40
1.0
  9
$ATTMODE
 70
1
  9
$TEXTSIZE
 40
2.5
  9
$TRACEWID
 40
1.0
  9
$TEXTSTYLE
  7
Standard
  9
$CLAYER
  8
0
  9
$CELTYPE
  6
ByLayer
  9
$CECOLOR
 62
256
  9
$CELTSCALE
 40
1.0
  9
$DISPSILH
 70
0
  9
$DIMSCALE
 40
1.0
  9
$DIMASZ
 40
2.5
  9
$DIMEXO
 40
0.625
  9
$DIMDLI
 40
3.75
  9
$DIMRND
 40
0.0
  9
$DIMDLE
 40
0.0
  9
$DIMEXE
 40
1.25
  9
$DIMTP
 40
0.0
  9
$DIMTM
 40
0.0
  9
$DIMTXT
 40
2.5
  9
$DIMCEN
 40
2.5
  9
$DIMTSZ
 40
0.0
  9
$DIMTOL
 70
0
  9
$DIMLIM
 70
0
  9
$DIMTIH
 70
0
  9
$DIMTOH
 70
0
  9
$DIMSE1
 70
0
  9
$DIMSE2
 70
0
  9
$DIMTAD
 70
1
  9
$DIMZIN
 70
8
  9
$DIMBLK
  1

  9
$DIMASO
 70
1
  9
$DIMSHO
 70
1
  9
$DIMPOST
  1

  9
$DIMAPOST
  1

  9
$DIMALT
 70
0
  9
$DIMALTD
 70
3
  9
$DIMALTF
 40
0.03937007874
  9
$DIMLFAC
 40
1.0
  9
$DIMTOFL
 70
1
  9
$DIMTVP
 40
0.0
  9
$DIMTIX
 70
0
  9
$DIMSOXD
 70
0
  9
$DIMSAH
 70
0
  9
$DIMBLK1
  1

  9
$DIMBLK2
  1

  9
$DIMSTYLE
  2
ISO-25
  9
$DIMCLRD
 70
0
  9
$DIMCLRE
 70
0
  9
$DIMCLRT
 70
0
  9
$DIMTFAC
 40
1.0
  9
$DIMGAP
 40
0.625
  9
$DIMJUST
 70
0
  9
$DIMSD1
 70
0
  9
$DIMSD2
 70
0
  9
$DIMTOLJ
 70
0
  9
$DIMTZIN
 70
8
  9
$DIMALTZ
 70
0
  9
$DIMALTTZ
 70
0
  9
$DIMUPT
 70
0
  9
$DIMDEC
 70
2
  9
$DIMTDEC
 70
2
  9
$DIMALTU
 70
2
  9
$DIMALTTD
 70
3
  9
$DIMTXSTY
  7
Standard
  9
$DIMAUNIT
 70
0
  9
$DIMADEC
 70
0
  9
$DIMALTRND
 40
0.0
  9
$DIMAZIN
 70
0
  9
$DIMDSEP
 70
44
  9
$DIMATFIT
 70
3
  9
$DIMFRAC
 70
0
  9
$DIMLDRBLK
  1

  9
$DIMLUNIT
 70
2
  9
$DIMLWD
 70
-2
  9
$DIMLWE
 70
-2
  9
$DIMTMOVE
 70
0
  9
$DIMFXL
 40
1.0
  9
$DIMFXLON
 70
0
  9
$DIMJOGANG
 40
0.785398163397
  9
$DIMTFILL
 70
0
  9
$DIMTFILLCLR
 70
0
  9
$DIMARCSYM
 70
0
  9
$DIMLTYPE
  6

  9
$DIMLTEX1
  6

  9
$DIMLTEX2
  6

  9
$DIMTXTDIRECTION
 70
0
  9
$LUNITS
 70
2
  9
$LUPREC
 70
4
  9
$SKETCHINC
 40
1.0
  9
$FILLETRAD
 40
10.0
  9
$AUNITS
 70
0
  9
$AUPREC
 70
2
  9
$MENU
  1
.
  9
$ELEVATION
 40
0.0
  9
$PELEVATION
 40
0.0
  9
$THICKNESS
 40
0.0
  9
$LIMCHECK
 70
0
  9
$CHAMFERA
 40
0.0
  9
$CHAMFERB
 40
0.0
  9
$CHAMFERC
 40
0.0
  9
$CHAMFERD
 40
0.0
  9
$SKPOLY
 70
0
  9
$TDCREATE
 40
2461246.458483796
  9
$TDUCREATE
 40
2458532.153996898
  9
$TDUPDATE
 40
2461246.458483796
  9
$TDUUPDATE
 40
2458532.1544311
  9
$TDINDWG
 40
0.0
  9
$TDUSRTIMER
 40
0.0
  9
$USRTIMER
 70
1
  9
$ANGBASE
 50
0.0
  9
$ANGDIR
 70
0
  9
$PDMODE
 70
0
  9
$PDSIZE
 40
0.0
  9
$PLINEWID
 40
0.0
  9
$SPLFRAME
 70
0
  9
$SPLINETYPE
 70
6
  9
$SPLINESEGS
 70
8
  9
$HANDSEED
  5
B7
  9
$SURFTAB1
 70
6
  9
$SURFTAB2
 70
6
  9
$SURFTYPE
 70
6
  9
$SURFU
 70
6
  9
$SURFV
 70
6
  9
$UCSBASE
  2

  9
$UCSNAME
  2

  9
$UCSORG
 10
0.0
 20
0.0
 30
0.0
  9
$UCSXDIR
 10
1.0
 20
0.0
 30
0.0
  9
$UCSYDIR
 10
0.0
 20
1.0
 30
0.0
  9
$UCSORTHOREF
  2

  9
$UCSORTHOVIEW
 70
0
  9
$UCSORGTOP
 10
0.0
 20
0.0
 30
0.0
  9
$UCSORGBOTTOM
 10
0.0
 20
0.0
 30
0.0
  9
$UCSORGLEFT
 10
0.0
 20
0.0
 30
0.0
  9
$UCSORGRIGHT
 10
0.0
 20
0.0
 30
0.0
  9
$UCSORGFRONT
 10
0.0
 20
0.0
 30
0.0
  9
$UCSORGBACK
 10
0.0
 20
0.0
 30
0.0
  9
$PUCSBASE
  2

  9
$PUCSNAME
  2

  9
$PUCSORG
 10
0.0
 20
0.0
 30
0.0
  9
$PUCSXDIR
 10
1.0
 20
0.0
 30
0.0
  9
$PUCSYDIR
 10
0.0
 20
1.0
 30
0.0
  9
$PUCSORTHOREF
  2

  9
$PUCSORTHOVIEW
 70
0
  9
$PUCSORGTOP
 10
0.0
 20
0.0
 30
0.0
  9
$PUCSORGBOTTOM
 10
0.0
 20
0.0
 30
0.0
  9
$PUCSORGLEFT
 10
0.0
 20
0.0
 30
0.0
  9
$PUCSORGRIGHT
 10
0.0
 20
0.0
 30
0.0
  9
$PUCSORGFRONT
 10
0.0
 20
0.0
 30
0.0
  9
$PUCSORGBACK
 10
0.0
 20
0.0
 30
0.0
  9
$USERI1
 70
0
  9
$USERI2
 70
0
  9
$USERI3
 70
0
  9
$USERI4
 70
0
  9
$USERI5
 70
0
  9
$USERR1
 40
0.0
  9
$USERR2
 40
0.0
  9
$USERR3
 40
0.0
  9
$USERR4
 40
0.0
  9
$USERR5
 40
0.0
  9
$WORLDVIEW
 70
1
  9
$SHADEDGE
 70
3
  9
$SHADEDIF
 70
70
  9
$TILEMODE
 70
1
  9
$MAXACTVP
 70
64
  9
$PINSBASE
 10
0.0
 20
0.0
 30
0.0
  9
$PLIMCHECK
 70
0
  9
$PEXTMIN
 10
1e+20
 20
1e+20
 30
1e+20
  9
$PEXTMAX
 10
-1e+20
 20
-1e+20
 30
-1e+20
  9
$PLIMMIN
 10
0.0
 20
0.0
  9
$PLIMMAX
 10
420.0
 20
297.0
  9
$UNITMODE
 70
0
  9
$VISRETAIN
 70
1
  9
$PLINEGEN
 70
0
  9
$PSLTSCALE
 70
1
  9
$TREEDEPTH
 70
3020
  9
$CMLSTYLE
  2
Standard
  9
$CMLJUST
 70
0
  9
$CMLSCALE
 40
20.0
  9
$PROXYGRAPHICS
 70
1
  9
$MEASUREMENT
 70
1
  9
$CELWEIGHT
370
-1
  9
$ENDCAPS
280
0
  9
$JOINSTYLE
280
0
  9
$LWDISPLAY
290
0
  9
$INSUNITS
 70
6
  9
$HYPERLINKBASE
  1

  9
$STYLESHEET
  1

  9
$XEDIT
290
1
  9
$CEPSNTYPE
380
0
  9
$PSTYLEMODE
290
1
  9
$FINGERPRINTGUID
  2
{A8C61A10-3A6F-463C-A5E1-220F9A1A7574}
  9
$VERSIONGUID
  2
{D036BD47-CE04-493E-8096-7D8E01B7BA55}
  9
$EXTNAMES
290
1
  9
$PSVPSCALE
 40
0.0
  9
$OLESTARTUP
290
0
  9
$SORTENTS
280
127
  9
$INDEXCTL
280
0
  9
$HIDETEXT
280
1
  9
$XCLIPFRAME
280
1
  9
$HALOGAP
280
0
  9
$OBSCOLOR
 70
257
  9
$OBSLTYPE
280
0
  9
$INTERSECTIONDISPLAY
280
0
  9
$INTERSECTIONCOLOR
 70
257
  9
$DIMASSOC
280
2
  9
$PROJECTNAME
  1

  9
$CAMERADISPLAY
290
0
  9
$LENSLENGTH
 40
50.0
  9
$CAMERAHEIGHT
 40
0.0
  9
$STEPSPERSEC
 40
24.0
  9
$STEPSIZE
 40
100.0
  9
$3DDWFPREC
 40
2.0
  9
$PSOLWIDTH
 40
0.005
  9
$PSOLHEIGHT
 40
0.08
  9
$LOFTANG1
 40
1.570796326795
  9
$LOFTANG2
 40
1.570796326795
  9
$LOFTMAG1
 40
0.0
  9
$LOFTMAG2
 40
0.0
  9
$LOFTPARAM
 70
7
  9
$LOFTNORMALS
280
1
  9
$LATITUDE
 40
37.795
  9
$LONGITUDE
 40
-122.394
  9
$NORTHDIRECTION
 40
0.0
  9
$TIMEZONE
 70
-8000
  9
$LIGHTGLYPHDISPLAY
280
1
  9
$TILEMODELIGHTSYNCH
280
1
  9
$CMATERIAL
347
20
  9
$SOLIDHIST
280
0
  9
$SHOWHIST
280
1
  9
$DWFFRAME
280
2
  9
$DGNFRAME
280
2
  9
$REALWORLDSCALE
290
1
  9
$INTERFERECOLOR
 62
256
  9
$CSHADOW
280
0
  9
$SHADOWPLANELOCATION
 40
0.0
  0
ENDSEC
  0
SECTION
  2
CLASSES
  0
CLASS
  1
ACDBDICTIONARYWDFLT
  2
AcDbDictionaryWithDefault
  3
ObjectDBX Classes
 90
0
 91
0
280
0
281
0
  0
CLASS
  1
SUN
  2
AcDbSun
  3
SCENEOE
 90
1153
 91
0
280
0
281
0
  0
CLASS
  1
VISUALSTYLE
  2
AcDbVisualStyle
  3
ObjectDBX Classes
 90
4095
 91
0
280
0
281
0
  0
CLASS
  1
MATERIAL
  2
AcDbMaterial
  3
ObjectDBX Classes
 90
1153
 91
0
280
0
281
0
  0
CLASS
  1
SCALE
  2
AcDbScale
  3
ObjectDBX Classes
 90
1153
 91
0
280
0
281
0
  0
CLASS
  1
TABLESTYLE
  2
AcDbTableStyle
  3
ObjectDBX Classes
 90
4095
 91
0
280
0
281
0
  0
CLASS
  1
MLEADERSTYLE
  2
AcDbMLeaderStyle
  3
ACDB_MLEADERSTYLE_CLASS
 90
4095
 91
0
280
0
281
0
  0
CLASS
  1
DICTIONARYVAR
  2
AcDbDictionaryVar
  3
ObjectDBX Classes
 90
0
 91
0
280
0
281
0
  0
CLASS
  1
CELLSTYLEMAP
  2
AcDbCellStyleMap
  3
ObjectDBX Classes
 90
1152
 91
0
280
0
281
0
  0
CLASS
  1
MENTALRAYRENDERSETTINGS
  2
AcDbMentalRayRenderSettings
  3
SCENEOE
 90
1024
 91
0
280
0
281
0
  0
CLASS
  1
ACDBDETAILVIEWSTYLE
  2
AcDbDetailViewStyle
  3
ObjectDBX Classes
 90
1025
 91
0
280
0
281
0
  0
CLASS
  1
ACDBSECTIONVIEWSTYLE
  2
AcDbSectionViewStyle
  3
ObjectDBX Classes
 90
1025
 91
0
280
0
281
0
  0
CLASS
  1
RASTERVARIABLES
  2
AcDbRasterVariables
  3
ISM
 90
0
 91
0
280
0
281
0
  0
CLASS
  1
ACDBPLACEHOLDER
  2
AcDbPlaceHolder
  3
ObjectDBX Classes
 90
0
 91
0
280
0
281
0
  0
CLASS
  1
LAYOUT
  2
AcDbLayout
  3
ObjectDBX Classes
 90
0
 91
0
280
0
281
0
  0
ENDSEC
  0
SECTION
  2
TABLES
  0
TABLE
  2
VPORT
  5
8
330
0
100
AcDbSymbolTable
 70
1
  0
VPORT
  5
23
330
8
100
AcDbSymbolTableRecord
100
AcDbViewportTableRecord
  2
*Active
 70
0
 10
0.0
 20
0.0
 11
1.0
 21
1.0
 12
0.0
 22
0.0
 13
0.0
 23
0.0
 14
0.5
 24
0.5
 15
0.5
 25
0.5
 16
0.0
 26
0.0
 36
1.0
 17
0.0
 27
0.0
 37
0.0
 40
1000.0
 41
1.34
 42
50.0
 43
0.0
 44
0.0
 50
0.0
 51
0.0
 71
0
 72
1000
 73
1
 74
3
 75
0
 76
0
 77
0
 78
0
281
0
 65
0
146
0.0
  0
ENDTAB
  0
TABLE
  2
LTYPE
  5
2
330
0
100
AcDbSymbolTable
 70
3
  0
LTYPE
  5
24
330
2
100
AcDbSymbolTableRecord
100
AcDbLinetypeTableRecord
  2
ByBlock
 70
0
  3

 72
65
 73
0
 40
0.0
  0
LTYPE
  5
25
330
2
100
AcDbSymbolTableRecord
100
AcDbLinetypeTableRecord
  2
ByLayer
 70
0
  3

 72
65
 73
0
 40
0.0
  0
LTYPE
  5
26
330
2
100
AcDbSymbolTableRecord
100
AcDbLinetypeTableRecord
  2
Continuous
 70
0
  3

 72
65
 73
0
 40
0.0
  0
ENDTAB
  0
TABLE
  2
LAYER
  5
1
330
0
100
AcDbSymbolTable
 70
8
  0
LAYER
  5
27
330
1
100
AcDbSymbolTableRecord
100
AcDbLayerTableRecord
  2
0
 70
0
 62
7
  6
Continuous
370
-3
390
13
347
21
  0
LAYER
  5
28
330
1
100
AcDbSymbolTableRecord
100
AcDbLayerTableRecord
  2
Defpoints
 70
0
 62
7
  6
Continuous
290
0
370
-3
390
13
347
21
  0
LAYER
  5
2F
330
1
100
AcDbSymbolTableRecord
100
AcDbLayerTableRecord
  2
INSTR
 70
0
 62
7
  6
Continuous
370
-3
390
13
347
21
  0
LAYER
  5
30
330
1
100
AcDbSymbolTableRecord
100
AcDbLayerTableRecord
  2
NOTES
 70
0
 62
7
  6
Continuous
370
-3
390
13
347
21
  0
LAYER
  5
31
330
1
100
AcDbSymbolTableRecord
100
AcDbLayerTableRecord
  2
BORDER
 70
0
 62
7
  6
Continuous
370
-3
390
13
347
21
  0
LAYER
  5
32
330
1
100
AcDbSymbolTableRecord
100
AcDbLayerTableRecord
  2
TEXT
 70
0
 62
7
  6
Continuous
370
-3
390
13
347
21
  0
LAYER
  5
33
330
1
100
AcDbSymbolTableRecord
100
AcDbLayerTableRecord
  2
TITLE
 70
0
 62
7
  6
Continuous
370
-3
390
13
347
21
  0
LAYER
  5
34
330
1
100
AcDbSymbolTableRecord
100
AcDbLayerTableRecord
  2
GEOM
 70
0
 62
7
  6
Continuous
370
-3
390
13
347
21
  0
ENDTAB
  0
TABLE
  2
STYLE
  5
5
330
0
100
AcDbSymbolTable
 70
1
  0
STYLE
  5
29
330
5
100
AcDbSymbolTableRecord
100
AcDbTextStyleTableRecord
  2
Standard
 70
0
 40
0.0
 41
1.0
 50
0.0
 71
0
 42
2.5
  3
txt
  4

  0
ENDTAB
  0
TABLE
  2
VIEW
  5
7
330
0
100
AcDbSymbolTable
 70
0
  0
ENDTAB
  0
TABLE
  2
UCS
  5
6
330
0
100
AcDbSymbolTable
 70
0
  0
ENDTAB
  0
TABLE
  2
APPID
  5
3
330
0
100
AcDbSymbolTable
 70
3
  0
APPID
  5
2A
330
3
100
AcDbSymbolTableRecord
100
AcDbRegAppTableRecord
  2
ACAD
 70
0
  0
APPID
  5
B4
330
3
100
AcDbSymbolTableRecord
100
AcDbRegAppTableRecord
  2
HATCHBACKGROUNDCOLOR
 70
0
  0
APPID
  5
B5
330
3
100
AcDbSymbolTableRecord
100
AcDbRegAppTableRecord
  2
EZDXF
 70
0
  0
ENDTAB
  0
TABLE
  2
DIMSTYLE
  5
4
330
0
100
AcDbSymbolTable
 70
1
100
AcDbDimStyleTable
  0
DIMSTYLE
105
2B
330
4
100
AcDbSymbolTableRecord
100
AcDbDimStyleTableRecord
  2
Standard
 70
0
 40
1.0
 41
2.5
 42
0.625
 43
3.75
 44
1.25
 45
0.0
 46
0.0
 47
0.0
 48
0.0
 49
2.5
140
2.5
141
2.5
142
0.0
143
0.03937007874
144
1.0
145
0.0
146
1.0
147
0.625
148
0.0
 69
0
 70
0
 71
0
 72
0
 73
0
 74
0
 75
0
 76
0
 77
1
 78
8
 79
3
170
0
171
3
172
1
173
0
174
0
175
0
176
0
177
0
178
0
179
2
271
2
272
2
273
2
274
3
275
0
276
0
277
2
278
44
279
0
280
0
281
0
282
0
283
0
284
8
285
0
286
0
288
0
289
3
290
0
371
-2
372
-2
  0
ENDTAB
  0
TABLE
  2
BLOCK_RECORD
  5
9
330
0
100
AcDbSymbolTable
 70
2
  0
BLOCK_RECORD
  5
17
330
9
100
AcDbSymbolTableRecord
100
AcDbBlockTableRecord
  2
*Model_Space
340
1A
 70
0
280
1
281
0
  0
BLOCK_RECORD
  5
1B
330
9
100
AcDbSymbolTableRecord
100
AcDbBlockTableRecord
  2
*Paper_Space
340
1E
 70
0
280
1
281
0
  0
ENDTAB
  0
ENDSEC
  0
SECTION
  2
BLOCKS
  0
BLOCK
  5
18
330
17
100
AcDbEntity
  8
0
100
AcDbBlockBegin
  2
*Model_Space
 70
0
 10
0.0
 20
0.0
 30
0.0
  3
*Model_Space
  1

  0
ENDBLK
  5
19
330
17
100
AcDbEntity
  8
0
100
AcDbBlockEnd
  0
BLOCK
  5
1C
330
1B
100
AcDbEntity
  8
0
100
AcDbBlockBegin
  2
*Paper_Space
 70
0
 10
0.0
 20
0.0
 30
0.0
  3
*Paper_Space
  1

  0
ENDBLK
  5
1D
330
1B
100
AcDbEntity
  8
0
100
AcDbBlockEnd
  0
ENDSEC
  0
SECTION
  2
ENTITIES
  0
TEXT
  5
35
330
17
100
AcDbEntity
  8
TEXT
100
AcDbText
 10
581.0
 20
182.0
 30
0.0
 40
2.5
  1
DISCHARGE / SUCTION DESIGN PRESS. (MAX) Barg FV / 286 / FV / 286
100
AcDbText
  0
TEXT
  5
36
330
17
100
AcDbEntity
  8
TEXT
100
AcDbText
 10
581.0
 20
194.0
 30
0.0
 40
2.5
  1
DUTY kW 1835
100
AcDbText
  0
TEXT
  5
37
330
17
100
AcDbEntity
  8
TEXT
100
AcDbText
 10
581.0
 20
188.0
 30
0.0
 40
2.5
  1
FLOW RATE kg/h 40210
100
AcDbText
  0
TEXT
  5
38
330
17
100
AcDbEntity
  8
TEXT
100
AcDbText
 10
581.0
 20
200.0
 30
0.0
 40
2.5
  1
TAG NUMBER 26-KA-901
100
AcDbText
  0
TEXT
  5
39
330
17
100
AcDbEntity
  8
TEXT
100
AcDbText
 10
581.0
 20
176.0
 30
0.0
 40
2.5
  1
VENDOR MAN ENERGY SOLUTIONS
100
AcDbText
  0
TEXT
  5
3A
330
17
100
AcDbEntity
  8
TEXT
100
AcDbText
 10
378.45
 20
333.0
 30
0.0
 40
3.5
  1
26-KA-901
100
AcDbText
  0
CIRCLE
  5
3B
330
17
100
AcDbEntity
  8
GEOM
100
AcDbCircle
 10
378.45
 20
297.0
 30
0.0
 40
30.0
  0
LINE
  5
3C
330
17
100
AcDbEntity
  8
GEOM
100
AcDbLine
 10
476.91862796079585
 20
359.9367701688778
 30
0.0
 11
548.4340411347436
 21
359.9367701688778
 31
0.0
  0
LINE
  5
3D
330
17
100
AcDbEntity
  8
GEOM
100
AcDbLine
 10
83.87895543508235
 20
299.4626354020562
 30
0.0
 11
243.1940203123421
 21
299.4626354020562
 31
0.0
  0
LINE
  5
3E
330
17
100
AcDbEntity
  8
GEOM
100
AcDbLine
 10
263.15170221548135
 20
215.85914619595079
 30
0.0
 11
382.38279030457716
 21
215.85914619595079
 31
0.0
  0
LINE
  5
3F
330
17
100
AcDbEntity
  8
GEOM
100
AcDbLine
 10
483.8138022334361
 20
355.26296396288785
 30
0.0
 11
633.3608193207552
 21
355.26296396288785
 31
0.0
  0
LINE
  5
40
330
17
100
AcDbEntity
  8
GEOM
100
AcDbLine
 10
331.62048228957883
 20
90.27856975728405
 30
0.0
 11
432.0875591849719
 21
90.27856975728405
 31
0.0
  0
LINE
  5
41
330
17
100
AcDbEntity
  8
GEOM
100
AcDbLine
 10
129.45890934301653
 20
395.7918664606376
 30
0.0
 11
336.0766601023279
 21
395.7918664606376
 31
0.0
  0
TEXT
  5
42
330
17
100
AcDbEntity
  8
INSTR
100
AcDbText
 10
244.61804022289311
 20
245.24745302521444
 30
0.0
 40
2.5
  1
FIT 9050 26
100
AcDbText
  0
TEXT
  5
43
330
17
100
AcDbEntity
  8
INSTR
100
AcDbText
 10
520.3327654731823
 20
191.9428277971083
 30
0.0
 40
2.5
  1
LIT 9051 26
100
AcDbText
  0
TEXT
  5
44
330
17
100
AcDbEntity
  8
INSTR
100
AcDbText
 10
187.74410014090893
 20
252.98752612713548
 30
0.0
 40
2.5
  1
FIT 9052 26
100
AcDbText
  0
TEXT
  5
45
330
17
100
AcDbEntity
  8
INSTR
100
AcDbText
 10
452.28071617651057
 20
202.01662368532988
 30
0.0
 40
2.5
  1
FIT 9053 26
100
AcDbText
  0
TEXT
  5
46
330
17
100
AcDbEntity
  8
INSTR
100
AcDbText
 10
398.0501410578997
 20
416.5355621831878
 30
0.0
 40
2.5
  1
TIT 9054 26
100
AcDbText
  0
TEXT
  5
47
330
17
100
AcDbEntity
  8
INSTR
100
AcDbText
 10
437.25086172793175
 20
454.4179860569482
 30
0.0
 40
2.5
  1
LIT 9055 26
100
AcDbText
  0
TEXT
  5
48
330
17
100
AcDbEntity
  8
INSTR
100
AcDbText
 10
436.74827007757654
 20
488.1985248244601
 30
0.0
 40
2.5
  1
FIT 9056 26
100
AcDbText
  0
TEXT
  5
49
330
17
100
AcDbEntity
  8
INSTR
100
AcDbText
 10
464.5505970553898
 20
287.90537395217507
 30
0.0
 40
2.5
  1
PDIT 9057 26
100
AcDbText
  0
TEXT
  5
4A
330
17
100
AcDbEntity
  8
INSTR
100
AcDbText
 10
304.01892041964527
 20
375.6950490893013
 30
0.0
 40
2.5
  1
FIT 9058 26 SD HH:135 LL:110
100
AcDbText
  0
TEXT
  5
4B
330
17
100
AcDbEntity
  8
INSTR
100
AcDbText
 10
411.24319627968214
 20
318.8337470611522
 30
0.0
 40
2.5
  1
FIT 9059 26 SD HH:150 LL:110
100
AcDbText
  0
TEXT
  5
4C
330
17
100
AcDbEntity
  8
INSTR
100
AcDbText
 10
408.80518644717324
 20
405.44828234004365
 30
0.0
 40
2.5
  1
PDIT 9060 26 SD HH:135 LL:110
100
AcDbText
  0
TEXT
  5
4D
330
17
100
AcDbEntity
  8
INSTR
100
AcDbText
 10
328.221447449022
 20
277.8661396812214
 30
0.0
 40
2.5
  1
PSE 9061 26
100
AcDbText
  0
TEXT
  5
4E
330
17
100
AcDbEntity
  8
INSTR
100
AcDbText
 10
327.39756877923537
 20
404.1100405601625
 30
0.0
 40
2.5
  1
PSE 9062 26
100
AcDbText
  0
TEXT
  5
4F
330
17
100
AcDbEntity
  8
TEXT
100
AcDbText
 10
368.4076277700141
 20
427.9849245688695
 30
0.0
 40
2.5
  1
2"-PL-26-9030-AS20S-38
100
AcDbText
  0
TEXT
  5
50
330
17
100
AcDbEntity
  8
TEXT
100
AcDbText
 10
413.9127787632395
 20
211.639974928057
 30
0.0
 40
2.5
  1
4"-PV-43-9031-AC21-38
100
AcDbText
  0
TEXT
  5
51
330
17
100
AcDbEntity
  8
TEXT
100
AcDbText
 10
102.78000019325897
 20
513.5219011111444
 30
0.0
 40
2.5
  1
4"-WC-63-9032-EC11S-08
100
AcDbText
  0
TEXT
  5
52
330
17
100
AcDbEntity
  8
TEXT
100
AcDbText
 10
314.74519585747873
 20
335.4320683257388
 30
0.0
 40
2.5
  1
4"-DO-43-9033-AS20-08
100
AcDbText
  0
TEXT
  5
53
330
17
100
AcDbEntity
  8
TEXT
100
AcDbText
 10
524.5949831200456
 20
263.12002276302894
 30
0.0
 40
2.5
  1
3"-DC-63-9034-GC11S-00
100
AcDbText
  0
TEXT
  5
54
330
17
100
AcDbEntity
  8
TEXT
100
AcDbText
 10
417.9772998548388
 20
411.4336183962625
 30
0.0
 40
2.5
  1
8"-WC-40-9035-GD20S-00
100
AcDbText
  0
TEXT
  5
55
330
17
100
AcDbEntity
  8
TEXT
100
AcDbText
 10
404.0338994196043
 20
80.13085309249341
 30
0.0
 40
2.5
  1
2"-VA-43-9036-AC21-00
100
AcDbText
  0
TEXT
  5
56
330
17
100
AcDbEntity
  8
TEXT
100
AcDbText
 10
251.5738192523889
 20
506.6907794257236
 30
0.0
 40
2.5
  1
4"-DC-40-9037-AS20-03
100
AcDbText
  0
TEXT
  5
57
330
17
100
AcDbEntity
  8
TEXT
100
AcDbText
 10
173.28552690629692
 20
83.09487929347722
 30
0.0
 40
2.5
  1
6"-VA-43-9038-AC21-08
100
AcDbText
  0
TEXT
  5
58
330
17
100
AcDbEntity
  8
TEXT
100
AcDbText
 10
267.00232074821224
 20
111.56235227787087
 30
0.0
 40
2.5
  1
2"-GI-43-9039-GS20S-00
100
AcDbText
  0
TEXT
  5
59
330
17
100
AcDbEntity
  8
TEXT
100
AcDbText
 10
268.76939070495985
 20
529.6422573277034
 30
0.0
 40
2.5
  1
6"-VA-26-9040-FC11S-03
100
AcDbText
  0
TEXT
  5
5A
330
17
100
AcDbEntity
  8
TEXT
100
AcDbText
 10
505.70276316254683
 20
443.73951129384426
 30
0.0
 40
2.5
  1
10"-VF-40-9041-FC11S-00
100
AcDbText
  0
TEXT
  5
5B
330
17
100
AcDbEntity
  8
TEXT
100
AcDbText
 10
196.09774210039197
 20
152.95894112422445
 30
0.0
 40
2.5
  1
8"-PV-43-9042-GD20S-00
100
AcDbText
  0
TEXT
  5
5C
330
17
100
AcDbEntity
  8
TEXT
100
AcDbText
 10
464.1906200606668
 20
89.43137169707505
 30
0.0
 40
2.5
  1
6"-GI-26-9043-GS20S-38
100
AcDbText
  0
TEXT
  5
5D
330
17
100
AcDbEntity
  8
TEXT
100
AcDbText
 10
448.68740770101664
 20
271.2349449526607
 30
0.0
 40
2.5
  1
8"-GI-26-9044-AC21S-08
100
AcDbText
  0
TEXT
  5
5E
330
17
100
AcDbEntity
  8
TEXT
100
AcDbText
 10
222.26849777091456
 20
142.41565438850336
 30
0.0
 40
2.5
  1
2"-PV-63-9045-AS20-03
100
AcDbText
  0
TEXT
  5
5F
330
17
100
AcDbEntity
  8
NOTES
100
AcDbText
 10
12.0
 20
560.0
 30
0.0
 40
2.5
  1
1. OIL CHANGE BY USING TEMPORARY ARRANGEMENT WITH HOSES.
100
AcDbText
  0
TEXT
  5
60
330
17
100
AcDbEntity
  8
NOTES
100
AcDbText
 10
12.0
 20
553.0
 30
0.0
 40
2.5
  1
2. FROM SEAL GAS SYSTEM RUPTURE DISCS.
100
AcDbText
  0
TEXT
  5
61
330
17
100
AcDbEntity
  8
NOTES
100
AcDbText
 10
12.0
 20
546.0
 30
0.0
 40
2.5
  1
3. MAX BACK-PRESSURE 1.5 BARG.
100
AcDbText
  0
TEXT
  5
62
330
17
100
AcDbEntity
  8
NOTES
100
AcDbText
 10
12.0
 20
539.0
 30
0.0
 40
2.5
  1
4. HIGH POINT VENT AND LOW POINT DRAIN TO BE FINALIZED BY PIPING AS PER PIPING LAYOUT.
100
AcDbText
  0
TEXT
  5
63
330
17
100
AcDbEntity
  8
NOTES
100
AcDbText
 10
12.0
 20
532.0
 30
0.0
 40
2.5
  1
5. DELETED.
100
AcDbText
  0
TEXT
  5
64
330
17
100
AcDbEntity
  8
NOTES
100
AcDbText
 10
12.0
 20
525.0
 30
0.0
 40
2.5
  1
6. DELETED.
100
AcDbText
  0
TEXT
  5
65
330
17
100
AcDbEntity
  8
NOTES
100
AcDbText
 10
12.0
 20
518.0
 30
0.0
 40
2.5
  1
7. MAX BACK-PRESSURE 0.005 BARG.
100
AcDbText
  0
TEXT
  5
66
330
17
100
AcDbEntity
  8
NOTES
100
AcDbText
 10
12.0
 20
511.0
 30
0.0
 40
2.5
  1
8. UPSTREAM STRAIGHT RUN MIN. 10xD. DOWNSTREAM STRAIGHT RUN MIN. 5xD.
100
AcDbText
  0
TEXT
  5
67
330
17
100
AcDbEntity
  8
NOTES
100
AcDbText
 10
12.0
 20
504.0
 30
0.0
 40
2.5
  1
9. LL SET POINT IS OVERRIDEN AT START-UP.
100
AcDbText
  0
TEXT
  5
68
330
17
100
AcDbEntity
  8
NOTES
100
AcDbText
 10
12.0
 20
497.0
 30
0.0
 40
2.5
  1
10. INSULATION THICKNESS TO BE TAKEN INTO CONSIDERATION ON TW SELECTION.
100
AcDbText
  0
TEXT
  5
69
330
17
100
AcDbEntity
  8
NOTES
100
AcDbText
 10
12.0
 20
490.0
 30
0.0
 40
2.5
  1
11. DELETED.
100
AcDbText
  0
TEXT
  5
6A
330
17
100
AcDbEntity
  8
NOTES
100
AcDbText
 10
12.0
 20
483.0
 30
0.0
 40
2.5
  1
12. LUBE OIL RESERVOIR VENT. OIL MIST SEPARATOR INSTALLED OFF-SKID.
100
AcDbText
  0
TEXT
  5
6B
330
17
100
AcDbEntity
  8
NOTES
100
AcDbText
 10
12.0
 20
476.0
 30
0.0
 40
2.5
  1
13. ATMOSPHERIC VENT.
100
AcDbText
  0
TEXT
  5
6C
330
17
100
AcDbEntity
  8
NOTES
100
AcDbText
 10
12.0
 20
469.0
 30
0.0
 40
2.5
  1
14. VENT ROUTED TO SAFE LOCATION.
100
AcDbText
  0
TEXT
  5
6D
330
17
100
AcDbEntity
  8
NOTES
100
AcDbText
 10
12.0
 20
462.0
 30
0.0
 40
2.5
  1
15. BOTTOM ENTRY FOR SUCTION AND DISCHARGE NOZZLES.
100
AcDbText
  0
TEXT
  5
6E
330
17
100
AcDbEntity
  8
NOTES
100
AcDbText
 10
12.0
 20
455.0
 30
0.0
 40
2.5
  1
16. THIS P&ID CONTAINS DCN-KP-0273-1.
100
AcDbText
  0
TEXT
  5
6F
330
17
100
AcDbEntity
  8
TEXT
100
AcDbText
 10
451.51982065308
 20
436.2838958219125
 30
0.0
 40
2.0
  1
N4200
100
AcDbText
  0
TEXT
  5
70
330
17
100
AcDbEntity
  8
TEXT
100
AcDbText
 10
373.3824159326733
 20
418.36914504443877
 30
0.0
 40
2.0
  1
N4201
100
AcDbText
  0
TEXT
  5
71
330
17
100
AcDbEntity
  8
TEXT
100
AcDbText
 10
478.438256797051
 20
432.8668362367242
 30
0.0
 40
2.0
  1
N4202
100
AcDbText
  0
TEXT
  5
72
330
17
100
AcDbEntity
  8
TEXT
100
AcDbText
 10
455.5884882365392
 20
356.16723003255663
 30
0.0
 40
2.0
  1
N4203
100
AcDbText
  0
TEXT
  5
73
330
17
100
AcDbEntity
  8
TEXT
100
AcDbText
 10
536.3234211774811
 20
318.79996373448085
 30
0.0
 40
2.0
  1
N4204
100
AcDbText
  0
TEXT
  5
74
330
17
100
AcDbEntity
  8
TEXT
100
AcDbText
 10
347.7484319403513
 20
174.0427746561919
 30
0.0
 40
2.0
  1
N4205
100
AcDbText
  0
TEXT
  5
75
330
17
100
AcDbEntity
  8
TITLE
100
AcDbText
 10
641.0
 20
48.0
 30
0.0
 40
2.5
  1
A  2026-01-15  ISSUED FOR DESIGN
100
AcDbText
  0
TEXT
  5
76
330
17
100
AcDbEntity
  8
TITLE
100
AcDbText
 10
641.0
 20
38.0
 30
0.0
 40
2.5
  1
2026-01-15
100
AcDbText
  0
TEXT
  5
77
330
17
100
AcDbEntity
  8
TITLE
100
AcDbText
 10
641.0
 20
8.0
 30
0.0
 40
2.5
  1
0D204-PID-26-901-001
100
AcDbText
  0
TEXT
  5
78
330
17
100
AcDbEntity
  8
TITLE
100
AcDbText
 10
641.0
 20
20.0
 30
0.0
 40
2.5
  1
26-KA-901
100
AcDbText
  0
TEXT
  5
79
330
17
100
AcDbEntity
  8
TITLE
100
AcDbText
 10
641.0
 20
26.0
 30
0.0
 40
2.5
  1
REV A
100
AcDbText
  0
TEXT
  5
7A
330
17
100
AcDbEntity
  8
TITLE
100
AcDbText
 10
641.0
 20
32.0
 30
0.0
 40
2.5
  1
SHEET 1 OF 1
100
AcDbText
  0
TEXT
  5
7B
330
17
100
AcDbEntity
  8
TITLE
100
AcDbText
 10
641.0
 20
14.0
 30
0.0
 40
2.5
  1
2ND STAGE MP GAS COMPRESSOR
100
AcDbText
  0
TEXT
  5
7C
330
17
100
AcDbEntity
  8
TEXT
100
AcDbText
 10
435.603765967992
 20
396.188304825494
 30
0.0
 40
2.0
  1
40GB9188
100
AcDbText
  0
TEXT
  5
7D
330
17
100
AcDbEntity
  8
TEXT
100
AcDbText
 10
224.79968835888639
 20
182.4261278917602
 30
0.0
 40
2.0
  1
43CH9191
100
AcDbText
  0
TEXT
  5
7E
330
17
100
AcDbEntity
  8
TEXT
100
AcDbText
 10
160.57454012309339
 20
168.92397500674568
 30
0.0
 40
2.0
  1
26GB9253
100
AcDbText
  0
TEXT
  5
7F
330
17
100
AcDbEntity
  8
TEXT
100
AcDbText
 10
114.90216893732828
 20
432.749330782079
 30
0.0
 40
2.0
  1
26BL9029
100
AcDbText
  0
TEXT
  5
80
330
17
100
AcDbEntity
  8
TEXT
100
AcDbText
 10
532.6943190852551
 20
457.267423816046
 30
0.0
 40
2.0
  1
26GB9356
100
AcDbText
  0
TEXT
  5
81
330
17
100
AcDbEntity
  8
TEXT
100
AcDbText
 10
153.84755459675986
 20
169.91865816192023
 30
0.0
 40
2.0
  1
43GT9070
100
AcDbText
  0
TEXT
  5
82
330
17
100
AcDbEntity
  8
TEXT
100
AcDbText
 10
139.3907354085911
 20
113.6168987236087
 30
0.0
 40
2.0
  1
43CB9361
100
AcDbText
  0
TEXT
  5
83
330
17
100
AcDbEntity
  8
TEXT
100
AcDbText
 10
448.9648880999537
 20
395.06669057813207
 30
0.0
 40
2.0
  1
26CB9235
100
AcDbText
  0
TEXT
  5
84
330
17
100
AcDbEntity
  8
TEXT
100
AcDbText
 10
393.8639179317626
 20
425.27735069504496
 30
0.0
 40
2.0
  1
26GT9284
100
AcDbText
  0
TEXT
  5
85
330
17
100
AcDbEntity
  8
TEXT
100
AcDbText
 10
383.3327762667304
 20
437.72201525131345
 30
0.0
 40
2.0
  1
26CB9168
100
AcDbText
  0
TEXT
  5
86
330
17
100
AcDbEntity
  8
TEXT
100
AcDbText
 10
510.28965967169404
 20
129.4302721685956
 30
0.0
 40
2.0
  1
43BL9155
100
AcDbText
  0
TEXT
  5
87
330
17
100
AcDbEntity
  8
TEXT
100
AcDbText
 10
383.10265252154943
 20
296.04283454738686
 30
0.0
 40
2.0
  1
40CH9220
100
AcDbText
  0
TEXT
  5
88
330
17
100
AcDbEntity
  8
BORDER
100
AcDbText
 10
35.041666666666664
 20
4.0
 30
0.0
 40
3.0
  1
1
100
AcDbText
  0
TEXT
  5
89
330
17
100
AcDbEntity
  8
BORDER
100
AcDbText
 10
665.7916666666666
 20
4.0
 30
0.0
 40
3.0
  1
10
100
AcDbText
  0
TEXT
  5
8A
330
17
100
AcDbEntity
  8
BORDER
100
AcDbText
 10
735.875
 20
4.0
 30
0.0
 40
3.0
  1
11
100
AcDbText
  0
TEXT
  5
8B
330
17
100
AcDbEntity
  8
BORDER
100
AcDbText
 10
805.9583333333334
 20
4.0
 30
0.0
 40
3.0
  1
12
100
AcDbText
  0
TEXT
  5
8C
330
17
100
AcDbEntity
  8
BORDER
100
AcDbText
 10
105.125
 20
4.0
 30
0.0
 40
3.0
  1
2
100
AcDbText
  0
TEXT
  5
8D
330
17
100
AcDbEntity
  8
BORDER
100
AcDbText
 10
175.20833333333334
 20
4.0
 30
0.0
 40
3.0
  1
3
100
AcDbText
  0
TEXT
  5
8E
330
17
100
AcDbEntity
  8
BORDER
100
AcDbText
 10
245.29166666666669
 20
4.0
 30
0.0
 40
3.0
  1
4
100
AcDbText
  0
TEXT
  5
8F
330
17
100
AcDbEntity
  8
BORDER
100
AcDbText
 10
315.375
 20
4.0
 30
0.0
 40
3.0
  1
5
100
AcDbText
  0
TEXT
  5
90
330
17
100
AcDbEntity
  8
BORDER
100
AcDbText
 10
385.4583333333333
 20
4.0
 30
0.0
 40
3.0
  1
6
100
AcDbText
  0
TEXT
  5
91
330
17
100
AcDbEntity
  8
BORDER
100
AcDbText
 10
455.54166666666663
 20
4.0
 30
0.0
 40
3.0
  1
7
100
AcDbText
  0
TEXT
  5
92
330
17
100
AcDbEntity
  8
BORDER
100
AcDbText
 10
525.625
 20
4.0
 30
0.0
 40
3.0
  1
8
100
AcDbText
  0
TEXT
  5
93
330
17
100
AcDbEntity
  8
BORDER
100
AcDbText
 10
595.7083333333334
 20
4.0
 30
0.0
 40
3.0
  1
9
100
AcDbText
  0
TEXT
  5
94
330
17
100
AcDbEntity
  8
BORDER
100
AcDbText
 10
35.041666666666664
 20
590.0
 30
0.0
 40
3.0
  1
1
100
AcDbText
  0
TEXT
  5
95
330
17
100
AcDbEntity
  8
BORDER
100
AcDbText
 10
665.7916666666666
 20
590.0
 30
0.0
 40
3.0
  1
10
100
AcDbText
  0
TEXT
  5
96
330
17
100
AcDbEntity
  8
BORDER
100
AcDbText
 10
735.875
 20
590.0
 30
0.0
 40
3.0
  1
11
100
AcDbText
  0
TEXT
  5
97
330
17
100
AcDbEntity
  8
BORDER
100
AcDbText
 10
805.9583333333334
 20
590.0
 30
0.0
 40
3.0
  1
12
100
AcDbText
  0
TEXT
  5
98
330
17
100
AcDbEntity
  8
BORDER
100
AcDbText
 10
105.125
 20
590.0
 30
0.0
 40
3.0
  1
2
100
AcDbText
  0
TEXT
  5
99
330
17
100
AcDbEntity
  8
BORDER
100
AcDbText
 10
175.20833333333334
 20
590.0
 30
0.0
 40
3.0
  1
3
100
AcDbText
  0
TEXT
  5
9A
330
17
100
AcDbEntity
  8
BORDER
100
AcDbText
 10
245.29166666666669
 20
590.0
 30
0.0
 40
3.0
  1
4
100
AcDbText
  0
TEXT
  5
9B
330
17
100
AcDbEntity
  8
BORDER
100
AcDbText
 10
315.375
 20
590.0
 30
0.0
 40
3.0
  1
5
100
AcDbText
  0
TEXT
  5
9C
330
17
100
AcDbEntity
  8
BORDER
100
AcDbText
 10
385.4583333333333
 20
590.0
 30
0.0
 40
3.0
  1
6
100
AcDbText
  0
TEXT
  5
9D
330
17
100
AcDbEntity
  8
BORDER
100
AcDbText
 10
455.54166666666663
 20
590.0
 30
0.0
 40
3.0
  1
7
100
AcDbText
  0
TEXT
  5
9E
330
17
100
AcDbEntity
  8
BORDER
100
AcDbText
 10
525.625
 20
590.0
 30
0.0
 40
3.0
  1
8
100
AcDbText
  0
TEXT
  5
9F
330
17
100
AcDbEntity
  8
BORDER
100
AcDbText
 10
595.7083333333334
 20
590.0
 30
0.0
 40
3.0
  1
9
100
AcDbText
  0
TEXT
  5
A0
330
17
100
AcDbEntity
  8
BORDER
100
AcDbText
 10
4.0
 20
564.3
 30
0.0
 40
3.0
  1
A
100
AcDbText
  0
TEXT
  5
A1
330
17
100
AcDbEntity
  8
BORDER
100
AcDbText
 10
4.0
 20
504.9
 30
0.0
 40
3.0
  1
B
100
AcDbText
  0
TEXT
  5
A2
330
17
100
AcDbEntity
  8
BORDER
100
AcDbText
 10
4.0
 20
445.5
 30
0.0
 40
3.0
  1
C
100
AcDbText
  0
TEXT
  5
A3
330
17
100
AcDbEntity
  8
BORDER
100
AcDbText
 10
4.0
 20
386.1
 30
0.0
 40
3.0
  1
D
100
AcDbText
  0
TEXT
  5
A4
330
17
100
AcDbEntity
  8
BORDER
100
AcDbText
 10
4.0
 20
326.7
 30
0.0
 40
3.0
  1
E
100
AcDbText
  0
TEXT
  5
A5
330
17
100
AcDbEntity
  8
BORDER
100
AcDbText
 10
4.0
 20
267.29999999999995
 30
0.0
 40
3.0
  1
F
100
AcDbText
  0
TEXT
  5
A6
330
17
100
AcDbEntity
  8
BORDER
100
AcDbText
 10
4.0
 20
207.89999999999998
 30
0.0
 40
3.0
  1
G
100
AcDbText
  0
TEXT
  5
A7
330
17
100
AcDbEntity
  8
BORDER
100
AcDbText
 10
4.0
 20
148.5
 30
0.0
 40
3.0
  1
H
100
AcDbText
  0
TEXT
  5
A8
330
17
100
AcDbEntity
  8
BORDER
100
AcDbText
 10
4.0
 20
89.10000000000002
 30
0.0
 40
3.0
  1
I
100
AcDbText
  0
TEXT
  5
A9
330
17
100
AcDbEntity
  8
BORDER
100
AcDbText
 10
4.0
 20
29.700000000000045
 30
0.0
 40
3.0
  1
J
100
AcDbText
  0
TEXT
  5
AA
330
17
100
AcDbEntity
  8
BORDER
100
AcDbText
 10
837.0
 20
564.3
 30
0.0
 40
3.0
  1
A
100
AcDbText
  0
TEXT
  5
AB
330
17
100
AcDbEntity
  8
BORDER
100
AcDbText
 10
837.0
 20
504.9
 30
0.0
 40
3.0
  1
B
100
AcDbText
  0
TEXT
  5
AC
330
17
100
AcDbEntity
  8
BORDER
100
AcDbText
 10
837.0
 20
445.5
 30
0.0
 40
3.0
  1
C
100
AcDbText
  0
TEXT
  5
AD
330
17
100
AcDbEntity
  8
BORDER
100
AcDbText
 10
837.0
 20
386.1
 30
0.0
 40
3.0
  1
D
100
AcDbText
  0
TEXT
  5
AE
330
17
100
AcDbEntity
  8
BORDER
100
AcDbText
 10
837.0
 20
326.7
 30
0.0
 40
3.0
  1
E
100
AcDbText
  0
TEXT
  5
AF
330
17
100
AcDbEntity
  8
BORDER
100
AcDbText
 10
837.0
 20
267.29999999999995
 30
0.0
 40
3.0
  1
F
100
AcDbText
  0
TEXT
  5
B0
330
17
100
AcDbEntity
  8
BORDER
100
AcDbText
 10
837.0
 20
207.89999999999998
 30
0.0
 40
3.0
  1
G
100
AcDbText
  0
TEXT
  5
B1
330
17
100
AcDbEntity
  8
BORDER
100
AcDbText
 10
837.0
 20
148.5
 30
0.0
 40
3.0
  1
H
100
AcDbText
  0
TEXT
  5
B2
330
17
100
AcDbEntity
  8
BORDER
100
AcDbText
 10
837.0
 20
89.10000000000002
 30
0.0
 40
3.0
  1
I
100
AcDbText
  0
TEXT
  5
B3
330
17
100
AcDbEntity
  8
BORDER
100
AcDbText
 10
837.0
 20
29.700000000000045
 30
0.0
 40
3.0
  1
J
100
AcDbText
  0
ENDSEC
  0
SECTION
  2
OBJECTS
  0
DICTIONARY
  5
A
330
0
100
AcDbDictionary
281
1
  3
ACAD_COLOR
350
B
  3
ACAD_GROUP
350
C
  3
ACAD_LAYOUT
350
D
  3
ACAD_MATERIAL
350
E
  3
ACAD_MLEADERSTYLE
350
F
  3
ACAD_MLINESTYLE
350
10
  3
ACAD_PLOTSETTINGS
350
11
  3
ACAD_PLOTSTYLENAME
350
12
  3
ACAD_SCALELIST
350
14
  3
ACAD_TABLESTYLE
350
15
  3
ACAD_VISUALSTYLE
350
16
  3
EZDXF_META
350
2D
  0
DICTIONARY
  5
B
330
A
100
AcDbDictionary
281
1
  0
DICTIONARY
  5
C
330
A
100
AcDbDictionary
281
1
  0
DICTIONARY
  5
D
330
A
100
AcDbDictionary
281
1
  3
Model
350
1A
  3
Layout1
350
1E
  0
DICTIONARY
  5
E
330
A
100
AcDbDictionary
281
1
  3
ByBlock
350
1F
  3
ByLayer
350
20
  3
Global
350
21
  0
DICTIONARY
  5
F
330
A
100
AcDbDictionary
281
1
  3
Standard
350
2C
  0
DICTIONARY
  5
10
330
A
100
AcDbDictionary
281
1
  3
Standard
350
22
  0
DICTIONARY
  5
11
330
A
100
AcDbDictionary
281
1
  0
ACDBDICTIONARYWDFLT
  5
12
330
A
100
AcDbDictionary
281
1
  3
Normal
350
13
100
AcDbDictionaryWithDefault
340
13
  0
ACDBPLACEHOLDER
  5
13
330
12
  0
DICTIONARY
  5
14
330
A
100
AcDbDictionary
281
1
  0
DICTIONARY
  5
15
330
A
100
AcDbDictionary
281
1
  0
DICTIONARY
  5
16
330
A
100
AcDbDictionary
281
1
  0
LAYOUT
  5
1A
330
D
100
AcDbPlotSettings
  1

  4
A3
  6

 40
7.5
 41
20.0
 42
7.5
 43
20.0
 44
420.0
 45
297.0
 46
0.0
 47
0.0
 48
0.0
 49
0.0
140
0.0
141
0.0
142
1.0
143
1.0
 70
1024
 72
1
 73
0
 74
5
  7

 75
16
 76
0
 77
2
 78
300
147
1.0
148
0.0
149
0.0
100
AcDbLayout
  1
Model
 70
1
 71
0
 10
0.0
 20
0.0
 11
420.0
 21
297.0
 12
0.0
 22
0.0
 32
0.0
 14
1e+20
 24
1e+20
 34
1e+20
 15
-1e+20
 25
-1e+20
 35
-1e+20
146
0.0
 13
0.0
 23
0.0
 33
0.0
 16
1.0
 26
0.0
 36
0.0
 17
0.0
 27
1.0
 37
0.0
 76
1
330
17
  0
LAYOUT
  5
1E
330
D
100
AcDbPlotSettings
  1

  4
A3
  6

 40
7.5
 41
20.0
 42
7.5
 43
20.0
 44
420.0
 45
297.0
 46
0.0
 47
0.0
 48
0.0
 49
0.0
140
0.0
141
0.0
142
1.0
143
1.0
 70
0
 72
1
 73
0
 74
5
  7

 75
16
 76
0
 77
2
 78
300
147
1.0
148
0.0
149
0.0
100
AcDbLayout
  1
Layout1
 70
1
 71
1
 10
0.0
 20
0.0
 11
420.0
 21
297.0
 12
0.0
 22
0.0
 32
0.0
 14
1e+20
 24
1e+20
 34
1e+20
 15
-1e+20
 25
-1e+20
 35
-1e+20
146
0.0
 13
0.0
 23
0.0
 33
0.0
 16
1.0
 26
0.0
 36
0.0
 17
0.0
 27
1.0
 37
0.0
 76
1
330
1B
  0
MATERIAL
  5
1F
102
{ACAD_REACTORS
330
E
102
}
330
E
100
AcDbMaterial
  1
ByBlock
  2

 70
0
 40
1.0
 71
1
 41
1.0
 91
-1023410177
 42
1.0
 72
1
  3

 73
1
 74
1
 75
1
 44
0.5
 73
0
 45
1.0
 46
1.0
 77
1
  4

 78
1
 79
1
170
1
 48
1.0
171
1
  6

172
1
173
1
174
1
140
1.0
141
1.0
175
1
  7

176
1
177
1
178
1
143
1.0
179
1
  8

270
1
271
1
272
1
145
1.0
146
1.0
273
1
  9

274
1
275
1
276
1
 42
1.0
 72
1
  3

 73
1
 74
1
 75
1
 94
63
  0
MATERIAL
  5
20
102
{ACAD_REACTORS
330
E
102
}
330
E
100
AcDbMaterial
  1
ByLayer
  2

 70
0
 40
1.0
 71
1
 41
1.0
 91
-1023410177
 42
1.0
 72
1
  3

 73
1
 74
1
 75
1
 44
0.5
 73
0
 45
1.0
 46
1.0
 77
1
  4

 78
1
 79
1
170
1
 48
1.0
171
1
  6

172
1
173
1
174
1
140
1.0
141
1.0
175
1
  7

176
1
177
1
178
1
143
1.0
179
1
  8

270
1
271
1
272
1
145
1.0
146
1.0
273
1
  9

274
1
275
1
276
1
 42
1.0
 72
1
  3

 73
1
 74
1
 75
1
 94
63
  0
MATERIAL
  5
21
102
{ACAD_REACTORS
330
E
102
}
330
E
100
AcDbMaterial
  1
Global
  2

 70
0
 40
1.0
 71
1
 41
1.0
 91
-1023410177
 42
1.0
 72
1
  3

 73
1
 74
1
 75
1
 44
0.5
 73
0
 45
1.0
 46
1.0
 77
1
  4

 78
1
 79
1
170
1
 48
1.0
171
1
  6

172
1
173
1
174
1
140
1.0
141
1.0
175
1
  7

176
1
177
1
178
1
143
1.0
179
1
  8

270
1
271
1
272
1
145
1.0
146
1.0
273
1
  9

274
1
275
1
276
1
 42
1.0
 72
1
  3

 73
1
 74
1
 75
1
 94
63
  0
MLINESTYLE
  5
22
102
{ACAD_REACTORS
330
10
102
}
330
10
100
AcDbMlineStyle
  2
Standard
 70
0
  3

 62
256
 51
90.0
 52
90.0
 71
2
 49
0.5
 62
256
  6
BYLAYER
 49
-0.5
 62
256
  6
BYLAYER
  0
MLEADERSTYLE
  5
2C
102
{ACAD_REACTORS
330
F
102
}
330
F
100
AcDbMLeaderStyle
179
2
170
2
171
1
172
0
 90
2
 40
0.0
 41
0.0
173
1
 91
-1056964608
 92
-2
290
1
 42
2.0
291
1
 43
8.0
  3
Standard
 44
4.0
300

342
29
174
1
175
1
176
0
178
1
 93
-1056964608
 45
4.0
292
0
297
0
 46
4.0
 94
-1056964608
 47
1.0
 49
1.0
140
1.0
294
1
141
0.0
177
0
142
1.0
295
0
296
0
143
3.75
271
0
272
9
273
9
  0
DICTIONARY
  5
2D
330
A
100
AcDbDictionary
280
1
281
1
  3
CREATED_BY_EZDXF
350
2E
  3
WRITTEN_BY_EZDXF
350
B6
  0
DICTIONARYVAR
  5
2E
330
2D
100
DictionaryVariables
280
0
  1
1.4.4 @ 2026-07-24T11:00:13.857942+00:00
  0
DICTIONARYVAR
  5
B6
330
2D
100
DictionaryVariables
280
0
  1
1.4.4 @ 2026-07-24T11:00:13.861334+00:00
  0
ENDSEC
  0
EOF
